<svg xmlns="http://www.w3.org/2000/svg" xmlns:xlink="http://www.w3.org/1999/xlink" width="500" zoomAndPan="magnify" viewBox="0 0 375 202.499994" height="270" preserveAspectRatio="xMidYMid meet" version="1.0"><defs><clipPath id="b662ceec3c"><path d="M 0.460938 0 L 374.539062 0 L 374.539062 202 L 0.460938 202 Z M 0.460938 0 " clip-rule="nonzero"/></clipPath><clipPath id="9ba32d0295"><path d="M 0.460938 0.914062 L 374.539062 0.914062 L 374.539062 201.417969 L 0.460938 201.417969 Z M 0.460938 0.914062 " clip-rule="nonzero"/></clipPath><filter id="white-outline"><feMorphology operator="dilate" radius="2" in="SourceAlpha" result="expanded"/><feFlood flood-color="white" result="white"/><feComposite in="white" in2="expanded" operator="in" result="outline"/><feMerge><feMergeNode in="outline"/><feMergeNode in="SourceGraphic"/></feMerge></filter><filter id="white-outline-glow"><feMorphology operator="dilate" radius="2" in="SourceAlpha" result="expanded"/><feMorphology operator="erode" radius="0.5" in="SourceAlpha" result="shrunk"/><feComposite in="expanded" in2="shrunk" operator="out" result="outlineOnly"/><feFlood flood-color="white" result="white"/><feComposite in="white" in2="outlineOnly" operator="in" result="whiteOutline"/><feGaussianBlur in="whiteOutline" stdDeviation="3" result="glow1"/><feGaussianBlur in="whiteOutline" stdDeviation="6" result="glow2"/><feGaussianBlur in="whiteOutline" stdDeviation="10" result="glow3"/><feMerge><feMergeNode in="glow3"/><feMergeNode in="glow2"/><feMergeNode in="glow1"/><feMergeNode in="whiteOutline"/></feMerge></filter></defs><g filter="url(#white-outline)"><path fill="#cc4940" d="M 224.40625 38.90625 L 225.148438 38.90625 C 225.664062 38.902344 226.179688 38.902344 226.695312 38.902344 C 227.464844 38.902344 228.238281 38.898438 229.011719 38.890625 C 237.648438 38.863281 246.195312 40.785156 253.75 45.121094 C 259.492188 48.574219 264.867188 53.015625 268.878906 58.40625 L 269.257812 58.910156 C 272.964844 63.902344 275.925781 69.25 278.304688 74.996094 L 278.601562 75.707031 C 280.316406 79.851562 281.503906 84.089844 282.585938 88.4375 L 282.796875 89.28125 C 284.898438 97.722656 286.054688 106.214844 286.058594 114.921875 L 286.0625 116.269531 C 286.066406 117.203125 286.066406 118.136719 286.066406 119.070312 C 286.066406 120.011719 286.066406 120.957031 286.070312 121.902344 C 286.109375 131.757812 286.109375 131.757812 285.511719 136.488281 C 285.4375 137.082031 285.375 137.679688 285.316406 138.277344 C 285.023438 141.117188 284.417969 143.871094 283.789062 146.652344 C 283.515625 147.890625 283.261719 149.132812 283.03125 150.378906 C 282.4375 153.214844 281.632812 156.003906 280.871094 158.800781 L 267.167969 158.800781 C 267.5 156.785156 267.839844 154.773438 268.210938 152.765625 L 268.339844 152.074219 C 268.472656 151.355469 268.605469 150.632812 268.738281 149.914062 L 269.382812 146.425781 C 269.695312 144.734375 270 143.042969 270.308594 141.351562 L 185.214844 141.351562 L 186.359375 147.074219 C 186.609375 148.425781 186.863281 149.777344 187.105469 151.132812 C 187.621094 153.976562 187.621094 153.976562 188.253906 156.796875 C 188.355469 157.371094 188.355469 157.371094 188.355469 158.800781 L 174.652344 158.800781 C 173.320312 154.078125 172.144531 149.410156 171.257812 144.589844 L 171.132812 143.917969 C 170.519531 140.597656 170.089844 137.28125 169.796875 133.917969 L 169.699219 132.863281 C 169.417969 129.179688 169.445312 125.476562 169.441406 121.78125 C 169.441406 121 169.4375 120.21875 169.429688 119.4375 C 169.382812 113.753906 169.695312 108.09375 170.367188 102.453125 L 170.457031 101.699219 C 170.609375 100.429688 170.789062 99.160156 170.992188 97.894531 L 171.171875 96.769531 C 172.613281 88.015625 175.078125 79.269531 178.933594 71.277344 L 179.203125 70.699219 C 183.679688 61.164062 190.132812 53.121094 198.761719 47.082031 C 206.269531 41.949219 215.285156 38.921875 224.40625 38.90625 M 225.390625 52.433594 C 218.695312 52.835938 213.050781 54.832031 207.445312 58.5 C 205.722656 59.667969 204.160156 61 202.632812 62.410156 L 201.816406 63.15625 C 199.695312 65.183594 197.996094 67.425781 196.351562 69.847656 L 195.988281 70.378906 C 187.578125 82.8125 184.640625 98.3125 183.554688 113.046875 C 183.339844 116.546875 183.371094 120.0625 183.425781 123.566406 L 183.433594 124.210938 C 183.460938 125.390625 183.589844 126.445312 183.789062 127.625 L 271.734375 127.625 C 271.996094 126.324219 272.0625 125.148438 272.058594 123.835938 L 272.058594 123.140625 C 272.058594 122.402344 272.058594 121.660156 272.054688 120.917969 L 272.054688 120.15625 C 272.035156 112.585938 271.398438 105.441406 270.027344 97.996094 C 269.941406 97.53125 269.855469 97.0625 269.773438 96.59375 C 269.324219 94.148438 268.832031 91.792969 267.992188 89.445312 C 267.773438 88.828125 267.582031 88.199219 267.414062 87.566406 C 264.800781 77.800781 259.675781 69.023438 252.605469 61.835938 C 251.789062 61.101562 250.933594 60.460938 250.035156 59.835938 L 249.582031 59.511719 C 246.839844 57.542969 244.011719 55.988281 240.898438 54.6875 L 239.878906 54.257812 C 235.34375 52.554688 230.195312 52.164062 225.390625 52.433594 " fill-opacity="1" fill-rule="nonzero"/><path fill="#cc4940" d="M 138.386719 28.945312 C 139.535156 29.550781 140.246094 30.15625 140.957031 31.234375 C 141.21875 31.941406 141.21875 31.941406 141.421875 32.679688 L 141.628906 33.421875 L 141.8125 34.09375 L 142.097656 34.949219 C 142.472656 35.152344 142.855469 35.34375 143.242188 35.523438 C 144.839844 36.742188 145.71875 38.269531 146.59375 40.054688 C 147.417969 42.125 147.605469 43.953125 147.578125 46.160156 L 147.578125 46.976562 C 147.574219 47.832031 147.566406 48.683594 147.558594 49.539062 C 147.554688 50.121094 147.554688 50.703125 147.550781 51.285156 C 147.546875 52.703125 147.535156 54.125 147.523438 55.546875 L 148.09375 53.542969 C 148.578125 53.347656 148.578125 53.347656 149.238281 53.257812 C 150.417969 53.789062 151.035156 54.53125 151.808594 55.546875 L 152.378906 55.832031 L 152.367188 55.152344 L 152.351562 53.402344 L 152.378906 52.683594 L 152.664062 52.398438 C 153.574219 52.382812 153.574219 52.382812 154.664062 52.683594 C 155.929688 53.859375 156.589844 55.375 157.230469 56.949219 C 157.515625 57.546875 157.824219 57.953125 158.265625 58.441406 C 159.066406 59.410156 159.292969 60.03125 159.515625 61.265625 C 159.738281 62.757812 159.675781 63.964844 159.167969 65.394531 C 158.375 67.109375 157.558594 68.449219 156.214844 69.792969 C 154.652344 71.398438 153.613281 73.242188 152.519531 75.191406 L 151.992188 76.128906 C 150.914062 78.097656 150.019531 79.941406 150.003906 82.234375 C 150.09375 84.933594 151.058594 87.171875 152.4375 89.457031 C 153.71875 91.519531 155.058594 93.546875 156.402344 95.570312 L 157.023438 96.507812 L 157.582031 97.347656 C 158.097656 98.175781 158.550781 98.988281 158.945312 99.878906 C 158.855469 100.703125 158.855469 100.703125 158.660156 101.308594 C 157.964844 101.433594 157.964844 101.433594 156.945312 101.308594 C 156.019531 100.722656 155.203125 100.023438 154.375 99.308594 C 154.039062 99.027344 153.699219 98.746094 153.359375 98.46875 L 152.664062 97.875 C 153.910156 101.25 156.1875 103.910156 158.535156 106.5625 C 159.347656 107.488281 160.121094 108.453125 160.894531 109.414062 C 161.335938 109.953125 161.78125 110.488281 162.234375 111.019531 L 162.941406 111.855469 L 163.585938 112.605469 C 164.085938 113.324219 164.085938 113.324219 164.316406 114.09375 L 164.371094 114.753906 L 164.085938 115.324219 C 162.898438 115.417969 162.175781 115.367188 161.085938 114.863281 C 160.738281 114.652344 160.394531 114.4375 160.050781 114.214844 L 159.496094 113.871094 C 157.871094 112.839844 156.359375 111.6875 154.863281 110.480469 C 154.226562 109.992188 153.664062 109.660156 152.949219 109.316406 L 153.339844 110.03125 C 158.152344 118.839844 158.152344 118.839844 159.230469 122.476562 L 159.417969 123.085938 C 160.960938 128.171875 161.585938 133.238281 161.605469 138.546875 L 161.609375 139.609375 C 161.59375 141.476562 161.59375 141.476562 161.515625 142.210938 L 160.945312 143.070312 C 160.195312 143.121094 160.195312 143.121094 159.515625 143.070312 L 159.371094 142.386719 C 157.855469 135.570312 154.925781 130.621094 150.949219 124.96875 C 147.703125 120.351562 144.652344 115.511719 143.804688 109.84375 L 143.527344 109.03125 C 142.824219 108.652344 142.824219 108.652344 142.097656 108.460938 C 141.8125 107.886719 141.8125 107.886719 141.742188 107.046875 L 141.8125 106.171875 L 142.242188 105.808594 L 142.667969 105.3125 C 142.789062 104.398438 142.789062 104.398438 142.753906 103.351562 L 142.75 102.78125 C 142.742188 102.175781 142.734375 101.574219 142.722656 100.96875 C 142.71875 100.558594 142.714844 100.152344 142.710938 99.742188 C 142.703125 98.738281 142.6875 97.734375 142.667969 96.734375 L 141.972656 96.484375 L 141.242188 96.160156 C 140.957031 95.589844 140.957031 95.589844 140.886719 94.75 L 140.957031 93.871094 L 141.375 93.476562 L 141.8125 93.015625 C 141.984375 92.339844 141.984375 92.339844 142.035156 91.578125 L 142.121094 90.714844 L 142.207031 89.796875 C 142.640625 85.839844 143.453125 82.289062 145.8125 79 C 147.28125 77.023438 148.917969 75.253906 150.695312 73.554688 C 151.378906 72.894531 151.785156 72.484375 152.09375 71.5625 C 149.996094 72.164062 147.988281 72.746094 146.097656 73.851562 L 145.488281 74.496094 L 144.953125 74.996094 C 144.042969 75.085938 144.042969 75.085938 143.242188 74.996094 L 142.957031 74.707031 C 141.839844 74.816406 140.875 74.925781 139.8125 75.28125 C 139.617188 75.753906 139.425781 76.230469 139.242188 76.710938 C 138.886719 77.230469 138.886719 77.230469 138.386719 77.570312 C 137.546875 77.710938 137.546875 77.710938 136.671875 77.570312 C 135.996094 76.945312 135.996094 76.945312 135.53125 76.140625 C 135.386719 75.40625 135.386719 75.40625 135.53125 74.707031 C 135.996094 74.046875 135.996094 74.046875 136.671875 73.566406 C 137.589844 73.464844 138.324219 73.550781 139.226562 73.742188 C 140.304688 73.875 141.078125 73.625 142.097656 73.277344 L 142.1875 72.617188 C 142.382812 71.847656 142.382812 71.847656 142.722656 71.332031 C 143.242188 70.992188 143.242188 70.992188 144.0625 70.917969 C 144.953125 70.992188 144.953125 70.992188 145.578125 71.191406 C 146.945312 71.335938 148.101562 70.695312 149.355469 70.183594 C 150.492188 69.746094 151.375 69.519531 152.601562 69.574219 C 153.230469 69.609375 153.230469 69.609375 153.804688 69.558594 C 155.007812 68.761719 155.792969 67.535156 156.476562 66.273438 C 157.074219 64.957031 157.558594 63.746094 157.554688 62.285156 L 157.554688 61.625 C 157.519531 60.992188 157.40625 60.441406 157.230469 59.835938 L 156.507812 60.273438 C 153.808594 61.8125 153.808594 61.8125 152.207031 61.878906 L 151.183594 61.800781 C 149.464844 61.699219 148.371094 61.992188 146.816406 62.726562 C 146.125 63.074219 145.441406 63.429688 144.757812 63.792969 C 142.988281 64.71875 141.335938 65.105469 139.347656 65.054688 C 138.386719 64.953125 137.753906 64.675781 136.957031 64.125 C 136.230469 63.394531 135.847656 62.769531 135.441406 61.820312 C 134.867188 58.515625 135.925781 55.308594 137.050781 52.226562 C 137.253906 51.679688 137.460938 51.136719 137.671875 50.59375 C 138.371094 48.757812 139 46.898438 139.617188 45.035156 L 139.921875 44.125 C 140.722656 41.796875 140.722656 41.796875 140.992188 39.367188 L 140.996094 38.703125 C 140.980469 38.042969 140.980469 38.042969 140.671875 37.238281 L 140.136719 37.300781 C 139.363281 37.386719 138.589844 37.457031 137.816406 37.523438 L 137.132812 37.59375 C 136.183594 37.652344 135.484375 37.632812 134.609375 37.234375 C 133.675781 36.667969 132.828125 36.066406 132.105469 35.238281 L 132.105469 34.664062 C 130.585938 35.996094 129.632812 37.660156 128.570312 39.367188 C 128.164062 40.011719 127.757812 40.652344 127.351562 41.296875 L 127.039062 41.789062 C 125.992188 43.4375 124.917969 45.0625 123.824219 46.679688 L 123.316406 47.4375 C 121.488281 50.125 119.660156 52.324219 116.753906 53.855469 C 115.097656 54.648438 113.335938 55.140625 111.582031 55.667969 C 104.332031 57.878906 99.25 63.078125 94.128906 68.417969 C 93.609375 68.992188 93.097656 69.578125 92.59375 70.167969 C 87.746094 75.734375 81.585938 78.976562 74.871094 81.800781 C 73.269531 82.472656 71.6875 83.171875 70.125 83.933594 L 69.5625 84.199219 C 68.714844 84.621094 68.109375 85.039062 67.453125 85.726562 C 66.921875 86.429688 66.921875 86.429688 66.945312 87.382812 C 67.40625 88.808594 68.242188 89.675781 69.285156 90.726562 L 69 90.027344 C 68.652344 88.789062 68.535156 87.714844 68.714844 86.4375 C 69.140625 85.492188 69.597656 84.933594 70.394531 84.273438 C 72.847656 82.507812 75.558594 81.796875 78.492188 81.261719 L 79.277344 81 C 79.578125 80.628906 79.863281 80.25 80.136719 79.855469 C 81.042969 79.773438 81.796875 79.742188 82.667969 80.039062 C 83.308594 80.191406 83.308594 80.191406 84.046875 79.941406 C 84.988281 79.578125 85.929688 79.210938 86.863281 78.839844 L 87.859375 78.464844 L 88.808594 78.085938 L 89.679688 77.746094 C 90.484375 77.320312 90.484375 77.320312 90.90625 76.410156 L 91.273438 75.566406 L 91.84375 74.996094 L 92.699219 74.796875 C 93.742188 74.539062 94.421875 74.019531 95.269531 73.367188 C 96.003906 72.832031 96.003906 72.832031 96.695312 72.421875 C 97.804688 72.347656 97.804688 72.347656 98.695312 72.707031 C 99.425781 73.398438 99.777344 73.984375 100.148438 74.917969 C 100.640625 76.679688 100.535156 78.523438 100.535156 80.339844 L 100.535156 80.988281 C 100.535156 84.9375 100.035156 88.632812 99.160156 92.484375 C 98.984375 93.289062 98.84375 94.089844 98.710938 94.902344 C 98.433594 96.476562 97.957031 97.933594 97.410156 99.433594 L 97.144531 100.1875 C 96.492188 102.011719 96.492188 102.011719 96.097656 102.769531 C 95.746094 103.507812 95.835938 104.074219 95.894531 104.882812 C 95.910156 105.722656 95.910156 105.722656 95.839844 106.457031 C 95.179688 107.226562 95.179688 107.226562 94.414062 107.601562 L 93.554688 107.601562 L 93.46875 108.15625 C 93.296875 108.90625 93.082031 109.578125 92.824219 110.300781 C 92.46875 111.34375 92.304688 112.207031 92.414062 113.324219 L 92.699219 113.894531 C 92.789062 114.714844 92.789062 114.714844 92.699219 115.609375 L 92.152344 116.109375 C 91.492188 116.734375 91.492188 116.734375 91.257812 117.667969 C 90.582031 121.460938 90.613281 125.210938 90.699219 129.054688 L 88.988281 129.339844 C 88.464844 125.570312 88.660156 121.886719 89.121094 118.121094 L 89.203125 117.382812 L 89.285156 116.722656 L 89.273438 116.183594 L 88.703125 115.609375 C 88.59375 114.789062 88.59375 114.789062 88.703125 113.894531 C 89.203125 113.214844 89.203125 113.214844 89.84375 112.75 L 90.988281 112.75 L 91.082031 112.269531 C 91.320312 111.113281 91.589844 110.035156 92.039062 108.941406 C 92.480469 107.972656 92.480469 107.972656 92.3125 107.269531 C 92.171875 106.746094 92.171875 106.746094 91.84375 106.457031 C 91.753906 105.652344 91.753906 105.652344 91.84375 104.742188 C 92.359375 104.0625 92.359375 104.0625 92.984375 103.597656 L 93.839844 103.597656 L 93.96875 103.132812 C 94.492188 101.304688 95.132812 99.539062 95.820312 97.769531 C 96.207031 96.761719 96.527344 95.796875 96.695312 94.730469 L 96.214844 95.421875 C 94.746094 97.464844 93.414062 99.058594 91.164062 100.234375 C 88.875 101.226562 86.570312 101.203125 84.132812 101.023438 C 83.328125 100.890625 82.625 100.710938 81.847656 100.449219 L 81.992188 101.09375 C 82.496094 104.882812 81.9375 108.628906 80.5625 112.179688 C 80.242188 112.945312 79.90625 113.707031 79.566406 114.464844 L 79.230469 115.21875 C 78.058594 117.828125 76.875 120.429688 75.601562 122.992188 C 71.21875 131.835938 69.074219 140.5625 69.613281 150.449219 C 69.660156 151.15625 69.71875 151.859375 69.785156 152.5625 L 69.835938 153.15625 C 70.015625 154.632812 70.535156 155.824219 71.285156 157.085938 C 71.730469 157.699219 71.730469 157.699219 72.425781 157.941406 C 73.960938 158.121094 75.269531 157.960938 76.710938 157.371094 C 76.007812 156.121094 75.28125 154.902344 74.496094 153.707031 C 73.394531 151.765625 72.945312 149.800781 72.496094 147.628906 L 72.296875 146.707031 C 72.050781 145.527344 71.855469 144.421875 71.851562 143.214844 L 72.140625 142.496094 L 72.957031 141.976562 C 73.851562 141.457031 73.851562 141.457031 74.140625 140.820312 C 74.378906 140.15625 74.578125 139.492188 74.765625 138.816406 L 74.976562 138.085938 C 75.179688 137.367188 75.378906 136.644531 75.566406 135.917969 L 75.734375 135.285156 C 76.167969 133.617188 76.167969 133.617188 76.421875 131.914062 L 75.851562 131.054688 C 75.871094 130.074219 75.871094 130.074219 76.136719 129.054688 L 76.78125 128.542969 C 77.730469 127.773438 78.289062 126.945312 78.941406 125.925781 L 79.3125 125.355469 C 79.683594 124.777344 80.054688 124.199219 80.421875 123.621094 L 80.757812 123.097656 C 82.375 120.570312 83.679688 118.160156 84.445312 115.253906 L 84.703125 114.753906 C 85.285156 114.519531 85.285156 114.519531 85.847656 114.464844 L 86.132812 114.753906 C 86.429688 118.320312 85.582031 121.890625 84.914062 125.375 C 84.628906 126.882812 84.375 128.394531 84.132812 129.910156 L 84.667969 130 L 85.277344 130.199219 L 85.847656 131.054688 C 85.738281 132.109375 85.738281 132.109375 85.5625 133.058594 L 84.132812 133.628906 L 84.101562 134.441406 C 83.964844 137.371094 83.660156 140.261719 83.28125 143.171875 C 82.992188 145.402344 82.992188 145.402344 82.992188 147.644531 L 83.417969 148.074219 L 83.847656 148.503906 C 83.953125 149.503906 83.953125 149.503906 83.847656 150.507812 C 83.472656 151.007812 83.472656 151.007812 82.992188 151.363281 C 82.140625 152.089844 81.742188 152.921875 81.261719 153.921875 L 80.820312 154.820312 L 80.421875 155.65625 C 80.230469 156.035156 80.042969 156.417969 79.851562 156.796875 L 80.9375 156.53125 C 85.128906 155.613281 89.453125 155.753906 93.679688 156.316406 L 94.457031 156.417969 C 95.988281 156.636719 97.425781 156.980469 98.894531 157.457031 C 99.777344 157.726562 100.667969 157.890625 101.578125 158.050781 C 102.121094 158.230469 102.121094 158.230469 102.621094 158.628906 L 102.980469 159.085938 C 103.03125 159.855469 103.03125 159.855469 102.980469 160.515625 L 103.640625 160.703125 C 105.101562 161.238281 106.453125 161.949219 107.839844 162.65625 L 109.6875 163.59375 C 110.65625 164.085938 111.625 164.578125 112.59375 165.074219 C 113.53125 165.550781 114.46875 166.027344 115.40625 166.5 L 116.289062 166.953125 L 117.101562 167.363281 L 117.820312 167.730469 L 118.398438 167.953125 L 118.96875 167.667969 C 120.46875 167.546875 120.46875 167.546875 121.253906 167.667969 C 121.9375 168.308594 122.097656 168.773438 122.394531 169.667969 C 123.121094 170.078125 123.867188 170.453125 124.628906 170.796875 C 124.847656 170.894531 125.066406 170.996094 125.292969 171.101562 C 128.238281 172.5625 128.238281 172.5625 131.40625 173.066406 C 131.839844 172.996094 132.269531 172.925781 132.699219 172.847656 L 133.246094 172.816406 C 134.121094 173.316406 134.121094 173.316406 134.675781 173.960938 L 134.675781 174.816406 L 135.1875 174.808594 C 136.402344 174.792969 137.480469 174.867188 138.671875 175.105469 C 139.113281 175.136719 139.550781 175.160156 139.992188 175.175781 L 140.648438 175.199219 L 141.242188 175.105469 C 141.535156 174.824219 141.820312 174.539062 142.097656 174.246094 C 142.957031 174.28125 142.957031 174.28125 143.8125 174.53125 C 144.347656 174.945312 144.347656 174.945312 144.667969 175.390625 L 144.667969 175.960938 L 145.8125 175.390625 C 144.171875 173.046875 144.171875 173.046875 142.097656 171.101562 C 141.339844 170.828125 140.605469 170.6875 139.8125 170.527344 L 139.242188 169.667969 C 139.238281 169.410156 139.234375 169.148438 139.230469 168.878906 L 138.957031 167.953125 C 138.152344 167.1875 137.246094 166.605469 136.316406 166.003906 L 135.574219 165.5 C 134.015625 164.460938 132.917969 164.03125 131.050781 163.84375 L 130.105469 163.664062 L 129.535156 162.804688 L 129.535156 161.660156 C 129.371094 161.609375 129.210938 161.558594 129.042969 161.503906 L 128.375 161.285156 L 127.65625 161.050781 C 126.964844 160.804688 126.964844 160.804688 126 160.300781 C 124.914062 159.925781 124.449219 159.96875 123.34375 160.125 C 122.53125 160.226562 122.53125 160.226562 121.824219 160.230469 C 121.058594 159.585938 121.058594 159.585938 120.683594 158.800781 L 120.683594 157.941406 L 119.925781 157.835938 C 119.007812 157.664062 118.238281 157.40625 117.371094 157.054688 L 116.460938 156.703125 C 115.84375 156.460938 115.226562 156.210938 114.609375 155.957031 C 112.898438 155.304688 111.648438 155.019531 109.816406 155.238281 L 108.914062 155.402344 L 108.117188 155.367188 C 107.507812 154.699219 107.507812 154.699219 106.976562 153.9375 C 106.46875 153.570312 106.46875 153.570312 105.925781 153.324219 L 105.324219 153.027344 L 104.691406 152.722656 C 101.445312 151.074219 98.5 149.027344 96.125 146.214844 L 95.839844 145.355469 L 96.410156 144.785156 C 97.101562 144.832031 97.101562 144.832031 97.839844 145.070312 C 98.339844 145.5 98.339844 145.5 98.820312 146.054688 C 100.964844 148.3125 104.289062 150.988281 107.261719 151.9375 C 108.007812 151.703125 108.007812 151.703125 108.691406 151.363281 C 109.582031 151.417969 109.582031 151.417969 110.402344 151.648438 C 110.921875 152.027344 110.921875 152.027344 111.261719 152.507812 L 111.304688 153.058594 L 111.546875 153.652344 C 112.167969 153.972656 112.808594 154.242188 113.46875 154.460938 L 114.054688 154.671875 C 114.464844 154.816406 114.875 154.957031 115.285156 155.097656 C 115.914062 155.3125 116.539062 155.535156 117.164062 155.761719 C 117.5625 155.902344 117.960938 156.039062 118.359375 156.179688 L 118.925781 156.378906 C 119.683594 156.636719 120.277344 156.8125 121.078125 156.710938 C 121.542969 156.546875 121.542969 156.546875 121.824219 156.226562 C 122.628906 156.136719 122.628906 156.136719 123.539062 156.226562 C 124.214844 156.761719 124.214844 156.761719 124.679688 157.371094 L 124.679688 157.941406 L 125.214844 158.089844 C 126.488281 158.453125 127.683594 158.847656 128.875 159.425781 C 129.78125 159.855469 130.132812 159.945312 131.175781 159.925781 L 132.105469 159.945312 C 132.90625 160.550781 132.90625 160.550781 133.53125 161.375 L 133.695312 162.160156 C 134.128906 163.148438 134.421875 163.429688 135.253906 164.070312 C 135.730469 164.40625 136.210938 164.734375 136.691406 165.058594 L 137.402344 165.570312 C 138.726562 166.484375 138.726562 166.484375 140.253906 166.898438 C 140.9375 166.890625 140.9375 166.890625 141.566406 166.8125 L 142.097656 166.808594 C 142.792969 167.417969 142.792969 167.417969 143.242188 168.238281 L 143.460938 169.054688 C 143.882812 170.140625 144.433594 170.691406 145.273438 171.492188 L 146.0625 172.25 L 146.667969 172.816406 C 147.269531 172.296875 147.269531 172.296875 147.433594 171.652344 L 147.605469 170.9375 L 147.796875 170.160156 L 147.988281 169.347656 L 148.1875 168.527344 C 148.347656 167.859375 148.507812 167.191406 148.667969 166.523438 C 148.484375 166.449219 148.300781 166.375 148.113281 166.300781 L 147.523438 165.953125 C 147.257812 164.96875 147.257812 164.96875 147.238281 163.949219 L 147.667969 163.554688 L 148.09375 163.089844 C 148.160156 161.9375 147.964844 160.800781 147.808594 159.660156 L 147.699219 158.753906 C 147.546875 157.613281 147.546875 157.613281 147.238281 156.511719 C 146.6875 156.183594 146.6875 156.183594 146.097656 155.941406 C 145.523438 155.082031 145.523438 155.082031 145.4375 154.367188 L 145.523438 153.652344 L 145.972656 153.253906 L 146.382812 152.792969 C 146.371094 152.199219 146.371094 152.199219 146.167969 151.578125 C 145.640625 149.671875 145.472656 147.808594 145.472656 145.839844 L 145.460938 145.21875 C 145.460938 144.695312 145.488281 144.167969 145.523438 143.640625 L 146.097656 143.070312 C 147.023438 143.085938 147.023438 143.085938 148.09375 143.355469 C 149.621094 144.375 150.839844 145.800781 151.808594 147.359375 C 152.007812 148.15625 152.007812 148.15625 152.09375 148.789062 C 151.480469 149.039062 151.480469 149.039062 150.664062 149.074219 C 150.03125 148.519531 149.535156 148.019531 149.003906 147.378906 L 148.570312 146.878906 C 148.21875 146.46875 147.871094 146.058594 147.523438 145.644531 C 147.632812 147.980469 147.773438 150.320312 148.667969 152.507812 C 148.949219 152.796875 149.234375 153.085938 149.523438 153.367188 C 149.628906 154.207031 149.628906 154.207031 149.523438 155.082031 L 149.082031 155.613281 L 148.667969 156.226562 C 148.625 156.976562 148.625 156.976562 148.769531 157.777344 L 148.894531 158.664062 L 149.039062 159.585938 L 149.175781 160.523438 C 149.289062 161.285156 149.402344 162.042969 149.523438 162.804688 L 150.21875 163.054688 L 150.949219 163.378906 C 151.234375 163.949219 151.234375 163.949219 151.289062 164.808594 L 151.234375 165.664062 L 150.664062 166.238281 C 150.460938 167.035156 150.273438 167.839844 150.113281 168.652344 C 150.011719 169.117188 149.914062 169.585938 149.8125 170.050781 L 149.667969 170.742188 C 149.382812 172.019531 149.03125 173.277344 148.667969 174.53125 C 151.167969 172.171875 152.945312 169.320312 154.1875 166.109375 C 155.476562 161.800781 155.445312 156.800781 154.609375 152.402344 C 153.941406 149.726562 152.652344 147.203125 151.480469 144.71875 C 149.546875 140.589844 148.066406 136.507812 148.023438 131.914062 L 148.015625 131.257812 C 148.019531 130.714844 148.054688 130.167969 148.09375 129.625 L 148.667969 129.054688 C 149.308594 129.019531 149.308594 129.019531 150.09375 129.339844 C 153.636719 132.667969 155.246094 138.898438 156.660156 143.355469 C 157.132812 144.960938 157.492188 146.574219 157.804688 148.21875 L 157.996094 149.132812 C 158.421875 151.5 158.433594 153.863281 158.445312 156.261719 L 158.453125 157.300781 L 158.449219 158.285156 L 158.449219 159.167969 C 158.375 159.960938 158.234375 160.425781 157.804688 161.089844 L 157.230469 161.375 C 157.039062 162.113281 156.867188 162.859375 156.714844 163.609375 C 155.765625 167.90625 153.964844 171.726562 151.132812 175.105469 C 150.652344 175.648438 150.652344 175.648438 150.378906 176.25 C 154.71875 176.164062 158.964844 176.023438 163.234375 175.203125 C 163.84375 175.097656 164.449219 175.03125 165.066406 174.96875 L 166.085938 174.816406 C 166.503906 174.289062 166.503906 174.289062 166.65625 173.675781 L 167.226562 173.101562 C 167.777344 173.175781 167.777344 173.175781 168.457031 173.328125 C 169.445312 173.449219 170.027344 173.40625 170.96875 173.0625 C 171.9375 172.566406 172.875 172.042969 173.8125 171.492188 L 174.78125 170.945312 C 175.402344 170.59375 176.027344 170.238281 176.644531 169.878906 C 177.617188 169.320312 178.605469 168.792969 179.605469 168.28125 L 180.074219 167.953125 C 180.492188 167.089844 180.492188 167.089844 180.648438 166.238281 C 181.003906 165.738281 181.003906 165.738281 181.503906 165.378906 L 182.300781 165.140625 C 183.289062 164.78125 183.867188 164.359375 184.664062 163.679688 L 185.488281 162.984375 C 185.925781 162.605469 186.363281 162.230469 186.800781 161.851562 C 189.515625 159.5 192.328125 157.089844 195.496094 155.367188 C 196.386719 155.261719 196.386719 155.261719 197.207031 155.367188 L 197.601562 155.796875 L 198.066406 156.226562 C 200.328125 156.597656 202.804688 156.105469 205.070312 155.859375 C 207.03125 155.652344 208.945312 155.589844 210.914062 155.65625 L 211.164062 155.117188 C 211.484375 154.511719 211.484375 154.511719 212.058594 153.9375 C 212.878906 153.832031 212.878906 153.832031 213.769531 153.9375 L 214.269531 154.507812 L 214.914062 155.082031 C 215.878906 155.265625 215.878906 155.265625 216.960938 155.257812 C 217.15625 155.261719 217.351562 155.265625 217.550781 155.269531 C 218.171875 155.285156 218.789062 155.292969 219.410156 155.296875 C 219.832031 155.304688 220.25 155.3125 220.671875 155.324219 C 221.703125 155.34375 222.734375 155.359375 223.765625 155.367188 L 223.765625 157.085938 L 222.914062 157.101562 C 221.871094 157.125 220.828125 157.148438 219.785156 157.175781 C 219.335938 157.1875 218.882812 157.195312 218.433594 157.207031 C 217.78125 157.21875 217.132812 157.234375 216.484375 157.253906 L 215.875 157.261719 C 215.363281 157.277344 214.851562 157.320312 214.339844 157.371094 L 213.484375 157.941406 C 212.769531 158.03125 212.769531 158.03125 212.058594 157.941406 C 211.539062 157.550781 211.539062 157.550781 211.199219 157.085938 L 211.199219 156.511719 L 210.542969 156.585938 C 206.484375 157.042969 202.433594 157.488281 198.351562 157.65625 L 198.117188 158.191406 C 197.78125 158.800781 197.78125 158.800781 196.921875 159.371094 C 196.226562 159.460938 196.226562 159.460938 195.496094 159.371094 C 195.105469 159.097656 194.726562 158.8125 194.351562 158.515625 C 192.449219 159.761719 190.710938 161.148438 189.007812 162.644531 C 188.207031 163.347656 187.40625 164.03125 186.554688 164.671875 L 185.699219 165.324219 L 184.933594 165.886719 L 184.359375 166.523438 C 184.136719 167.546875 184.136719 167.546875 184.074219 168.527344 C 183.734375 169.078125 183.734375 169.078125 183.21875 169.382812 C 182.238281 169.464844 181.582031 169.410156 180.648438 169.097656 C 179.953125 169.40625 179.277344 169.742188 178.613281 170.113281 L 178.015625 170.4375 C 177.378906 170.78125 176.746094 171.128906 176.113281 171.476562 C 175.484375 171.820312 174.851562 172.160156 174.21875 172.503906 C 173.828125 172.71875 173.433594 172.929688 173.042969 173.148438 C 172.074219 173.675781 171.117188 174.148438 170.082031 174.53125 L 169.992188 175.496094 L 169.796875 176.535156 C 168.941406 177.105469 168.941406 177.105469 168.117188 177.160156 C 167.226562 177.105469 167.226562 177.105469 166.59375 176.933594 C 165.539062 176.78125 164.613281 176.992188 163.585938 177.214844 C 160.640625 177.832031 157.761719 178.019531 154.753906 178.085938 L 153.636719 178.109375 C 152.863281 178.125 152.089844 178.140625 151.316406 178.15625 C 150.324219 178.175781 149.332031 178.199219 148.339844 178.222656 C 147.390625 178.246094 146.441406 178.265625 145.492188 178.28125 L 144.414062 178.3125 L 143.417969 178.328125 L 142.539062 178.34375 C 141.8125 178.25 141.8125 178.25 141.285156 177.871094 L 140.957031 177.390625 L 140.957031 176.535156 L 140.476562 176.484375 C 139.757812 176.414062 139.035156 176.339844 138.316406 176.265625 L 137.558594 176.191406 L 136.828125 176.117188 L 136.160156 176.046875 C 135.550781 175.964844 134.980469 175.835938 134.390625 175.675781 L 134.101562 176.535156 C 133.53125 176.820312 133.53125 176.820312 132.730469 176.945312 L 131.820312 176.820312 L 131.230469 176.027344 C 130.585938 175.210938 129.996094 174.863281 129.03125 174.476562 C 128.511719 174.289062 127.988281 174.101562 127.464844 173.925781 C 126.945312 173.738281 126.425781 173.554688 125.90625 173.367188 L 125.140625 173.097656 C 124.199219 172.742188 123.292969 172.324219 122.386719 171.886719 C 121.535156 171.5625 120.722656 171.636719 119.828125 171.671875 C 119.183594 171.511719 119.183594 171.511719 118.683594 171.101562 L 118.425781 170.1875 C 118.210938 169.621094 118.210938 169.621094 117.828125 169.097656 C 116.820312 168.351562 115.71875 167.816406 114.597656 167.265625 L 113.621094 166.773438 C 112.941406 166.429688 112.257812 166.089844 111.574219 165.753906 C 110.707031 165.324219 109.839844 164.886719 108.976562 164.441406 C 108.148438 164.019531 107.3125 163.605469 106.476562 163.191406 L 105.542969 162.710938 C 103.917969 161.914062 103.917969 161.914062 102.152344 161.648438 C 101.390625 161.722656 101.390625 161.722656 100.699219 161.875 L 100.125 161.945312 C 99.375 161.5 99.375 161.5 98.980469 160.804688 C 98.910156 159.875 98.910156 159.875 98.980469 159.085938 L 98.027344 158.972656 C 97.101562 158.855469 96.179688 158.726562 95.261719 158.585938 C 88.789062 157.613281 82.9375 158.019531 76.566406 159.585938 C 75.167969 159.929688 73.859375 160.160156 72.425781 159.945312 C 71.707031 159.714844 71.105469 159.433594 70.425781 159.085938 L 69.855469 158.800781 L 69.84375 159.386719 C 69.75 161.230469 69.378906 162.601562 68.527344 164.238281 C 68.144531 164.808594 68.144531 164.808594 67.285156 165.378906 C 66.234375 165.503906 65.199219 165.488281 64.144531 165.378906 C 63.664062 165.105469 63.183594 164.820312 62.71875 164.519531 L 61.699219 164.683594 L 60.71875 164.808594 C 60.023438 164.34375 60.023438 164.34375 59.578125 163.664062 C 59.503906 162.875 59.503906 162.875 59.578125 162.234375 L 58.972656 162.011719 C 58.046875 161.617188 57.222656 161.128906 56.359375 160.605469 C 56.015625 160.398438 55.667969 160.191406 55.320312 159.984375 C 54.78125 159.664062 54.242188 159.335938 53.707031 159.007812 C 51.621094 157.671875 51.621094 157.671875 49.289062 156.960938 C 48.535156 156.960938 48.535156 156.960938 47.851562 157.054688 L 47.296875 157.085938 C 46.546875 156.582031 46.546875 156.582031 46.15625 155.941406 L 46.15625 154.796875 C 43.589844 154.15625 41.09375 153.535156 38.445312 153.367188 L 38.519531 154.3125 L 38.445312 155.367188 C 37.519531 156.230469 36.539062 156.582031 35.339844 156.917969 C 33.46875 157.265625 31.566406 157.1875 29.671875 157.167969 C 29.214844 157.167969 28.757812 157.164062 28.300781 157.164062 C 27.109375 157.160156 25.914062 157.152344 24.722656 157.144531 C 23.5 157.136719 22.28125 157.128906 21.058594 157.125 C 18.667969 157.117188 16.277344 157.101562 13.890625 157.085938 L 13.890625 155.367188 L 14.417969 155.371094 C 16.238281 155.386719 18.058594 155.382812 19.878906 155.371094 C 20.558594 155.371094 21.238281 155.371094 21.917969 155.378906 C 22.894531 155.386719 23.871094 155.378906 24.847656 155.367188 L 25.761719 155.386719 C 26.621094 155.367188 27.339844 155.324219 28.167969 155.082031 C 28.808594 154.550781 29.265625 154.019531 29.75 153.339844 C 30.164062 152.792969 30.164062 152.792969 31.148438 152.238281 C 34.914062 151.113281 39.429688 151.261719 43.214844 152.164062 C 43.960938 152.355469 44.699219 152.5625 45.441406 152.765625 C 46.558594 153.070312 47.566406 153.101562 48.726562 153.082031 C 49.566406 153.542969 49.566406 153.542969 50.152344 154.222656 C 50.242188 155.152344 50.242188 155.152344 50.152344 155.941406 L 50.90625 156.167969 C 51.851562 156.507812 52.640625 156.914062 53.503906 157.425781 L 54.410156 157.957031 L 55.347656 158.515625 L 56.292969 159.070312 C 58.546875 160.402344 58.546875 160.402344 59.578125 161.089844 C 60.1875 161.042969 60.1875 161.042969 60.824219 160.890625 C 61.511719 160.796875 61.511719 160.796875 62.144531 160.804688 C 63.003906 161.445312 63.003906 161.445312 63.574219 162.234375 L 63.859375 163.089844 C 64.472656 163.441406 64.472656 163.441406 65.414062 163.449219 C 66.382812 163.457031 66.382812 163.457031 66.949219 163.074219 C 67.550781 162.085938 67.816406 161.023438 67.90625 159.878906 C 67.925781 159.160156 67.921875 158.445312 67.910156 157.726562 L 67.90625 156.929688 C 67.886719 155.203125 67.816406 153.480469 67.714844 151.757812 C 67.453125 147.195312 67.523438 142.875 68.304688 138.363281 C 68.382812 137.894531 68.460938 137.425781 68.535156 136.957031 C 69.601562 130.210938 72.8125 124.097656 75.757812 118.007812 C 79.15625 111.15625 79.15625 111.15625 80.191406 103.6875 L 80.136719 103.027344 L 80.097656 102.246094 C 80.035156 101.195312 80.035156 101.195312 79.851562 100.164062 C 79.234375 99.4375 78.585938 99.054688 77.738281 98.636719 L 76.988281 98.257812 C 76.726562 98.125 76.460938 97.996094 76.191406 97.859375 C 72.355469 95.886719 68.539062 93.636719 65.957031 90.074219 C 65.347656 89.082031 64.910156 88.160156 64.804688 86.988281 C 64.976562 86 65.09375 85.535156 65.609375 84.71875 C 68.628906 81.152344 74.4375 79.621094 78.582031 77.824219 C 83.066406 75.863281 86.625 73.242188 90.128906 69.847656 L 90.714844 69.28125 C 91.519531 68.496094 92.285156 67.671875 93.015625 66.816406 C 97.570312 61.585938 102.636719 56.574219 109.28125 54.1875 C 110.242188 53.871094 111.210938 53.582031 112.179688 53.300781 C 114.898438 52.46875 117.417969 51.46875 119.414062 49.394531 C 121.140625 47.390625 122.492188 45.101562 123.902344 42.875 C 125.144531 40.921875 126.414062 38.984375 127.675781 37.042969 C 127.957031 36.613281 128.234375 36.183594 128.515625 35.75 C 131.84375 30.609375 131.84375 30.609375 133.726562 29.25 C 135.296875 28.527344 136.710938 28.601562 138.386719 28.945312 M 292.292969 42.101562 L 319.992188 42.101562 L 319.992188 158.230469 L 292.292969 158.230469 Z M 296.578125 46.390625 L 296.578125 153.9375 L 315.421875 153.9375 L 315.421875 46.390625 Z M 296.578125 46.390625 " fill-opacity="1" fill-rule="nonzero"/><path fill="#cc4940" d="M 116.398438 57.261719 C 116.632812 57.886719 116.632812 57.886719 116.683594 58.691406 C 115.460938 60.121094 113.90625 61.136719 112.367188 62.203125 C 110.960938 63.21875 110.011719 64.261719 109.261719 65.84375 C 109.027344 66.578125 109.027344 66.578125 109.011719 67.234375 L 108.960938 67.878906 C 108.9375 68.441406 108.9375 68.441406 109.261719 68.988281 C 109.351562 69.808594 109.351562 69.808594 109.261719 70.703125 C 108.742188 71.382812 108.742188 71.382812 108.117188 71.847656 L 107.261719 71.847656 L 107.15625 72.570312 C 106.925781 73.835938 106.570312 75.058594 106.203125 76.289062 C 105.960938 77.136719 105.828125 77.804688 105.925781 78.683594 C 106.066406 79.273438 106.066406 79.273438 106.40625 79.570312 C 106.511719 80.519531 106.511719 80.519531 106.40625 81.574219 C 105.929688 81.957031 105.453125 82.335938 104.976562 82.71875 C 104.472656 83.628906 104.152344 84.585938 103.835938 85.578125 L 103.574219 86.339844 C 102.941406 88.539062 102.898438 90.683594 102.890625 92.960938 L 102.886719 93.890625 C 102.902344 95.601562 103.054688 97.097656 103.550781 98.734375 L 103.835938 98.449219 C 103.96875 97.699219 104.09375 96.949219 104.210938 96.195312 C 104.992188 91.496094 104.992188 91.496094 106.296875 89.855469 C 106.738281 89.332031 106.738281 89.332031 106.746094 88.714844 L 106.691406 88.132812 L 106.691406 87.007812 C 107.046875 86.507812 107.046875 86.507812 107.546875 86.148438 C 108.09375 86.105469 108.09375 86.105469 108.707031 86.132812 C 109.410156 86.101562 109.410156 86.101562 110.117188 85.863281 C 110.917969 85.21875 111.585938 84.515625 112.277344 83.753906 C 112.914062 83.070312 113.558594 82.519531 114.292969 81.949219 C 114.851562 81.5 114.851562 81.5 115.257812 81 C 115.351562 79.964844 115.351562 79.964844 115.257812 79 C 115.703125 78.300781 115.703125 78.300781 116.398438 77.855469 C 117.417969 77.730469 117.417969 77.730469 118.398438 77.855469 L 118.953125 78.160156 C 119.253906 78.714844 119.253906 78.714844 119.378906 79.695312 C 119.253906 80.714844 119.253906 80.714844 118.808594 81.414062 L 118.113281 81.859375 L 117.167969 81.804688 L 116.113281 81.859375 C 115.546875 82.285156 115.109375 82.761719 114.636719 83.289062 C 114.097656 83.878906 113.53125 84.382812 112.917969 84.898438 C 112.070312 85.640625 111.292969 86.328125 110.6875 87.292969 L 110.546875 88.332031 L 110.402344 89.296875 C 109.867188 89.851562 109.867188 89.851562 109.261719 90.152344 L 108.40625 90.152344 C 107.308594 95.023438 106.78125 99.257812 108.117188 104.167969 C 109.015625 107.050781 110.332031 109.457031 112.117188 111.890625 L 112.125 111.414062 C 112.292969 103.507812 112.292969 103.507812 113.84375 100.785156 L 114.164062 100.265625 C 114.742188 99.382812 114.742188 99.382812 114.695312 98.589844 L 114.542969 97.964844 C 114.433594 97.3125 114.433594 97.3125 114.402344 96.734375 C 114.902344 96 114.902344 96 115.542969 95.589844 L 116.398438 95.589844 C 116.390625 95.269531 116.382812 94.949219 116.371094 94.617188 C 116.371094 93.226562 116.589844 91.898438 116.828125 90.53125 C 117.222656 88.496094 117.222656 88.496094 117.257812 86.4375 L 116.808594 85.882812 L 116.398438 85.292969 C 116.433594 84.414062 116.433594 84.414062 116.683594 83.574219 C 117.023438 83.039062 117.023438 83.039062 117.542969 82.71875 C 118.378906 82.609375 118.378906 82.609375 119.253906 82.71875 C 119.933594 83.023438 119.933594 83.023438 120.398438 83.574219 C 120.539062 84.558594 120.539062 84.558594 120.398438 85.578125 C 119.863281 86.273438 119.863281 86.273438 119.253906 86.722656 L 118.683594 86.722656 C 118.554688 87.710938 118.421875 88.699219 118.292969 89.6875 L 118.183594 90.527344 C 117.941406 92.320312 117.632812 94.105469 117.257812 95.875 L 118.113281 96.160156 C 118.308594 97.089844 118.308594 97.089844 118.398438 98.164062 C 118.023438 98.859375 118.023438 98.859375 117.542969 99.308594 L 116.972656 99.308594 C 117.390625 100.445312 117.816406 101.582031 118.238281 102.722656 L 118.601562 103.707031 L 118.949219 104.640625 L 119.273438 105.507812 C 119.480469 106.148438 119.480469 106.148438 119.828125 106.457031 L 119.828125 105.921875 C 119.953125 103.085938 120.90625 100.546875 122.355469 98.136719 C 123.554688 96.421875 124.949219 94.503906 126.679688 93.300781 C 127.613281 93.230469 127.613281 93.230469 128.390625 93.300781 C 128.605469 93.765625 128.605469 93.765625 128.679688 94.445312 C 128.125 95.375 128.125 95.375 127.535156 96.160156 L 126.394531 95.875 L 126.167969 96.378906 C 125.804688 97.050781 125.390625 97.550781 124.894531 98.128906 C 123.585938 99.773438 122.804688 101.621094 122.109375 103.597656 L 122.109375 104.457031 L 122.683594 103.566406 L 123.449219 102.398438 L 123.824219 101.816406 C 124.578125 100.671875 125.296875 99.578125 126.394531 98.734375 C 127.28125 98.648438 127.28125 98.648438 128.105469 99.019531 C 128.523438 99.800781 128.792969 100.441406 129.054688 101.273438 C 129.125 101.484375 129.195312 101.691406 129.269531 101.910156 C 129.457031 102.46875 129.640625 103.03125 129.820312 103.597656 L 130.105469 104.457031 C 130.707031 102.496094 130.804688 100.589844 130.898438 98.546875 C 131.050781 95.382812 131.339844 92.316406 132.011719 89.210938 C 132.339844 87.683594 132.488281 86.277344 132.347656 84.707031 L 132.390625 84.148438 C 132.78125 83.640625 132.78125 83.640625 133.246094 83.289062 L 133.816406 83.289062 L 133.816406 80.144531 L 132.675781 79.570312 L 132.390625 79.285156 C 132.300781 78.335938 132.300781 78.335938 132.390625 77.28125 C 132.871094 76.585938 132.871094 76.585938 133.53125 76.140625 C 134.226562 75.976562 134.226562 75.976562 134.960938 76.140625 C 135.78125 76.746094 135.78125 76.746094 136.386719 77.570312 C 136.386719 78.460938 136.386719 78.460938 136.101562 79.285156 C 135.691406 79.820312 135.691406 79.820312 135.246094 80.144531 L 134.675781 80.144531 L 134.675781 83.289062 L 135.816406 83.863281 L 136.101562 84.148438 C 136.210938 85.09375 136.210938 85.09375 136.101562 86.148438 L 135.421875 86.667969 C 134.613281 87.246094 134.613281 87.246094 134.304688 88.195312 L 134.050781 89.242188 L 133.910156 89.8125 C 133.09375 93.3125 132.855469 96.875 132.675781 100.449219 L 134.101562 99.878906 C 135.191406 101.144531 135.191406 101.144531 135.421875 101.839844 C 135.914062 104.574219 135.953125 108.144531 135.136719 110.800781 C 134.402344 112.617188 133.449219 114.351562 132.558594 116.097656 C 131.527344 118.136719 130.847656 120.027344 130.550781 122.296875 C 130.71875 123.675781 131.132812 124.9375 131.570312 126.253906 C 131.820312 127.050781 131.820312 127.050781 131.820312 127.625 L 132.390625 127.625 L 132.484375 127.082031 C 132.886719 124.832031 133.332031 122.597656 133.800781 120.367188 L 134.019531 119.289062 L 134.234375 118.25 L 134.429688 117.316406 C 134.679688 116.445312 135.03125 115.792969 135.53125 115.039062 L 136.671875 115.324219 C 136.71875 116.890625 136.597656 118.199219 136.203125 119.726562 L 136.054688 120.3125 C 135.902344 120.917969 135.742188 121.527344 135.585938 122.136719 C 135.480469 122.539062 135.378906 122.941406 135.277344 123.347656 C 134.71875 125.542969 134.136719 127.730469 133.53125 129.910156 L 132.390625 129.910156 C 132.59375 130.617188 132.59375 130.617188 132.960938 131.34375 C 133.527344 131.710938 133.527344 131.710938 134.101562 131.914062 L 134.390625 132.199219 C 134.367188 132.625 134.339844 133.046875 134.308594 133.46875 C 134.296875 134.679688 134.492188 135.449219 135.074219 136.507812 C 135.363281 136.984375 135.660156 137.453125 135.960938 137.921875 C 136.253906 138.398438 136.550781 138.875 136.84375 139.351562 L 137.242188 139.976562 C 137.53125 140.496094 137.53125 140.496094 137.53125 141.066406 L 138.316406 140.976562 L 139.242188 141.066406 C 139.9375 141.675781 139.9375 141.675781 140.386719 142.496094 C 140.332031 143.425781 140.332031 143.425781 140.101562 144.214844 L 139.8125 144.5 C 139.832031 144.945312 139.871094 145.394531 139.921875 145.839844 C 139.949219 146.101562 139.976562 146.363281 140.007812 146.632812 C 140.074219 147.152344 140.160156 147.667969 140.261719 148.183594 C 140.386719 149.078125 140.433594 149.941406 140.457031 150.84375 L 140.480469 151.734375 L 140.386719 152.507812 C 139.953125 153.039062 139.953125 153.039062 139.527344 153.367188 C 139.03125 153.203125 139.03125 153.203125 138.386719 152.792969 C 137.960938 152.15625 137.5625 151.5 137.191406 150.828125 C 134.328125 145.890625 130.632812 141.890625 126.019531 138.558594 C 125.503906 138.179688 124.992188 137.796875 124.484375 137.40625 C 124.136719 137.140625 123.785156 136.878906 123.429688 136.617188 L 122.949219 136.242188 C 122.101562 135.625 121.503906 135.339844 120.464844 135.152344 L 119.539062 135.058594 C 118.863281 134.613281 118.863281 134.613281 118.398438 133.917969 L 118.34375 132.878906 C 118.3125 132.261719 118.3125 132.261719 118.113281 131.628906 C 117.359375 130.578125 116.449219 129.6875 115.542969 128.769531 C 114.96875 128.148438 114.398438 127.519531 113.828125 126.890625 C 112.988281 125.957031 112.988281 125.957031 112.117188 125.050781 L 111.171875 124.960938 C 110.117188 124.761719 110.117188 124.761719 109.421875 124.296875 C 108.976562 123.621094 108.976562 123.621094 108.886719 122.582031 C 108.976562 121.617188 108.976562 121.617188 109.261719 121.046875 C 109.078125 120.410156 109.078125 120.410156 108.78125 119.6875 C 107.566406 116.480469 106.804688 113.332031 106.402344 109.929688 C 106.332031 109.347656 106.261719 108.765625 106.183594 108.183594 C 105.957031 106.359375 105.769531 104.582031 105.835938 102.738281 L 105.261719 102.738281 L 104.691406 104.167969 L 103.265625 104.167969 C 101.164062 100.1875 100.742188 95.648438 100.867188 91.210938 C 101.003906 88.601562 101.414062 85.78125 102.457031 83.371094 C 102.742188 82.71875 102.742188 82.71875 102.636719 82.003906 L 102.496094 81.289062 C 102.398438 80.539062 102.398438 80.539062 102.40625 79.855469 C 103.050781 78.964844 103.050781 78.964844 103.835938 78.425781 L 104.691406 78.425781 L 104.789062 77.796875 C 105.082031 75.917969 105.476562 74.125 106.035156 72.304688 L 106.121094 71.5625 C 105.726562 70.945312 105.726562 70.945312 105.261719 70.417969 C 105.300781 69.542969 105.300781 69.542969 105.550781 68.703125 C 105.960938 68.164062 105.960938 68.164062 106.40625 67.84375 L 106.976562 67.84375 L 106.921875 66.914062 C 106.933594 65.03125 107.289062 63.113281 108.203125 61.457031 C 109.363281 59.832031 110.757812 58.566406 112.492188 57.582031 C 113.824219 57.175781 115.019531 57.1875 116.398438 57.261719 " fill-opacity="1" fill-rule="nonzero"/><path fill="#ffffff" d="M 115.542969 101.882812 L 116.113281 102.167969 C 116.390625 102.851562 116.640625 103.527344 116.882812 104.222656 C 117.472656 105.855469 118.105469 107.449219 118.863281 109.015625 L 119.335938 110.003906 L 119.828125 110.75 C 120.410156 110.945312 120.410156 110.945312 120.96875 111.035156 L 121.429688 110.101562 L 122.039062 108.871094 L 122.339844 108.261719 C 122.984375 106.96875 123.667969 105.699219 124.394531 104.457031 C 124.679688 105.3125 124.679688 105.3125 124.582031 105.863281 L 124.414062 106.546875 C 123.582031 110.925781 123.898438 115.34375 125.3125 119.558594 C 126.664062 123.339844 128.488281 127.054688 130.695312 130.414062 L 131.246094 131.34375 L 130.960938 132.199219 C 130.890625 133.214844 130.890625 133.214844 130.960938 134.203125 L 131.535156 134.773438 L 132.34375 134.8125 L 133.246094 135.058594 C 133.820312 135.730469 134.191406 136.488281 134.585938 137.277344 L 135.230469 138.507812 L 135.53125 139.101562 C 135.832031 139.6875 135.832031 139.6875 136.324219 140.410156 C 136.671875 141.066406 136.671875 141.066406 136.71875 141.792969 L 136.65625 142.515625 C 136.617188 143.257812 136.617188 143.257812 136.671875 143.925781 C 137.203125 144.527344 137.203125 144.527344 137.816406 145.070312 C 138.117188 145.914062 138.304688 146.753906 138.386719 147.644531 C 138.257812 148.296875 138.257812 148.296875 138.101562 148.789062 L 137.585938 148.035156 C 134.273438 143.238281 130.378906 139.519531 125.621094 136.144531 C 125.113281 135.78125 124.609375 135.414062 124.109375 135.042969 L 123.632812 134.707031 C 123.007812 134.242188 122.484375 133.8125 122.140625 133.105469 L 121.933594 132.554688 L 121.539062 131.628906 C 120.988281 131.371094 120.988281 131.371094 120.363281 131.394531 C 119.667969 131.289062 119.667969 131.289062 118.96875 131.054688 C 118.261719 130.445312 117.703125 129.777344 117.109375 129.054688 C 116.589844 128.425781 116.046875 127.8125 115.484375 127.21875 L 115.011719 126.722656 C 114.703125 126.398438 114.394531 126.078125 114.085938 125.753906 C 113.515625 125.148438 113.03125 124.625 112.726562 123.839844 C 112.6875 123.332031 112.6875 123.332031 112.777344 122.636719 L 112.6875 121.902344 C 112.273438 121.585938 111.859375 121.269531 111.445312 120.953125 C 110.023438 119.507812 109.558594 117.191406 109.042969 115.277344 L 108.886719 114.679688 L 108.738281 114.117188 C 108.410156 112.765625 108.363281 111.554688 108.40625 110.175781 C 109.539062 111.238281 110.414062 112.472656 111.292969 113.746094 C 111.6875 114.3125 111.6875 114.3125 112.402344 115.039062 C 113.308594 115.320312 113.308594 115.320312 114.117188 115.324219 C 114.15625 113.457031 114.15625 113.457031 113.972656 111.605469 C 113.519531 108.894531 113.976562 106.230469 114.6875 103.597656 C 114.957031 103.015625 115.238281 102.441406 115.542969 101.882812 M 147.808594 79.285156 L 148.378906 79.285156 L 148.339844 80.15625 C 148.203125 84.308594 149.332031 87.414062 151.273438 91.058594 C 152.199219 92.75 153.195312 94.347656 154.375 95.875 L 154.089844 96.445312 L 153.722656 96.019531 C 152.765625 94.929688 152.765625 94.929688 151.515625 94.246094 C 150.914062 94.160156 150.914062 94.160156 150.09375 94.160156 C 150.046875 96.867188 151.109375 99.261719 152.378906 101.59375 C 154.058594 104.394531 156.238281 106.867188 158.375 109.316406 L 159.015625 110.058594 C 159.46875 110.578125 159.917969 111.09375 160.375 111.605469 L 160.085938 112.179688 L 159.605469 111.8125 C 158.867188 111.253906 158.128906 110.695312 157.394531 110.140625 L 156.632812 109.5625 C 155.425781 108.652344 154.214844 107.753906 152.976562 106.890625 L 152.375 106.46875 C 151.746094 106.082031 151.746094 106.082031 150.664062 106.171875 C 150.511719 107.515625 150.71875 108.472656 151.21875 109.730469 C 151.832031 111.125 152.546875 112.433594 153.304688 113.75 C 156.414062 119.171875 158.167969 124.5625 159.320312 130.679688 L 159.46875 131.46875 C 159.738281 132.976562 159.851562 134.386719 159.800781 135.917969 L 159.230469 135.632812 C 159.058594 135.222656 158.898438 134.808594 158.753906 134.386719 C 157.953125 132.292969 156.683594 130.527344 155.429688 128.675781 L 154.898438 127.867188 L 154.40625 127.140625 L 154.089844 126.480469 C 154.179688 125.878906 154.179688 125.878906 154.378906 125.335938 C 154.507812 123.667969 154.160156 122.523438 153.503906 121.027344 L 153.234375 120.394531 C 152.363281 118.375 151.394531 116.414062 150.378906 114.464844 L 149.523438 114.464844 C 149.683594 115.671875 149.964844 116.65625 150.472656 117.757812 L 150.863281 118.628906 C 151.136719 119.230469 151.410156 119.832031 151.6875 120.429688 L 152.078125 121.296875 L 152.4375 122.085938 L 152.664062 122.761719 L 152.378906 123.621094 C 149.554688 120.261719 147.5625 116.582031 146.097656 112.464844 L 145.792969 111.679688 C 145.195312 110 145.253906 108.6875 145.570312 106.933594 L 145.523438 106.171875 L 144.824219 105.671875 L 144.097656 105.027344 C 143.882812 104.136719 143.882812 104.136719 143.832031 103.101562 L 143.769531 101.980469 L 143.722656 100.808594 C 143.703125 100.414062 143.679688 100.019531 143.660156 99.625 C 143.609375 98.660156 143.566406 97.699219 143.527344 96.734375 L 144.382812 96.445312 L 144.578125 95.375 L 144.691406 94.769531 L 144.667969 94.160156 C 144.386719 93.773438 144.101562 93.394531 143.8125 93.015625 C 143.3125 90.054688 144.289062 86.691406 145.179688 83.898438 C 145.703125 82.539062 146.425781 81.347656 147.238281 80.144531 Z M 97.582031 74.457031 L 98.125 74.707031 C 98.65625 75.5 98.710938 75.984375 98.820312 76.960938 C 98.753906 79.503906 97.621094 81.960938 96.339844 84.113281 C 95.003906 86.078125 93.402344 87.550781 91.308594 88.671875 C 88.6875 89.847656 86.160156 90.320312 83.292969 90.316406 L 82.359375 90.3125 C 79.03125 90.238281 75.875 89.523438 72.929688 87.941406 C 72.347656 87.5625 71.808594 87.179688 71.285156 86.722656 C 71.363281 86.195312 71.363281 86.195312 71.570312 85.578125 C 73.378906 83.992188 76.128906 83.46875 78.421875 83.003906 C 79.230469 82.9375 79.230469 82.9375 79.851562 83.003906 L 80.421875 83.574219 C 81.421875 83.644531 81.421875 83.644531 82.421875 83.289062 L 82.699219 82.367188 C 82.910156 81.820312 82.910156 81.820312 83.277344 81.289062 C 84.355469 80.601562 85.511719 80.167969 86.703125 79.714844 L 87.644531 79.320312 C 89.230469 78.699219 90.457031 78.339844 92.164062 78.542969 L 92.917969 78.6875 L 93.554688 78.714844 C 94.082031 78.378906 94.082031 78.378906 94.414062 77.855469 L 94.628906 76.890625 C 94.984375 75.851562 94.984375 75.851562 95.421875 75.394531 C 96.71875 74.40625 96.71875 74.40625 97.582031 74.457031 M 82.992188 123.332031 C 83.28125 124.253906 83.265625 124.941406 83.128906 125.894531 L 83.011719 126.699219 L 82.882812 127.535156 L 82.761719 128.378906 C 82.539062 129.894531 82.539062 129.894531 82.421875 130.484375 L 82.132812 130.769531 C 82.039062 131.605469 82.039062 131.605469 82.132812 132.484375 L 82.5625 132.902344 L 82.992188 133.34375 C 83.03125 134.191406 83.019531 135.039062 82.957031 135.882812 L 82.90625 136.664062 C 82.84375 137.558594 82.777344 138.457031 82.707031 139.351562 L 82.628906 140.433594 C 82.542969 141.5625 82.449219 142.691406 82.347656 143.820312 L 82.265625 144.925781 L 82.164062 145.957031 L 82.085938 146.882812 L 81.847656 147.644531 C 81.121094 148.132812 81.121094 148.132812 80.421875 148.503906 C 80.3125 149.25 80.3125 149.25 80.4375 150.078125 C 80.488281 151.140625 80.457031 151.84375 80.074219 152.839844 C 78.953125 154.917969 78.953125 154.917969 77.851562 155.65625 C 75.902344 152.492188 74.433594 149.417969 74.140625 145.644531 L 74.691406 145.484375 C 74.886719 145.347656 75.082031 145.210938 75.28125 145.070312 C 75.566406 144.09375 75.566406 144.09375 75.566406 143.070312 L 74.996094 142.210938 C 75.171875 140.359375 75.773438 138.558594 76.269531 136.769531 C 76.417969 136.226562 76.554688 135.675781 76.691406 135.128906 L 76.960938 134.128906 L 77.1875 133.234375 L 77.566406 132.484375 C 78.128906 132.183594 78.699219 131.898438 79.277344 131.628906 C 79.589844 130.652344 79.589844 130.652344 79.566406 129.625 L 79.378906 129.0625 L 79.277344 128.480469 C 79.554688 127.910156 79.554688 127.910156 79.992188 127.316406 L 80.457031 126.667969 L 80.957031 125.996094 L 81.449219 125.316406 C 82.617188 123.707031 82.617188 123.707031 82.992188 123.332031 " fill-opacity="1" fill-rule="nonzero"/><path fill="#ffffff" d="M 132.675781 101.882812 C 133.230469 102.078125 133.230469 102.078125 133.816406 102.453125 C 134.375 104.164062 134.253906 106.121094 134.101562 107.886719 C 133.65625 109.863281 132.804688 111.644531 131.910156 113.445312 C 131.628906 114.011719 131.351562 114.578125 131.070312 115.144531 L 130.648438 116 C 129.527344 118.324219 128.933594 120.480469 128.679688 123.046875 C 127.816406 122.046875 127.394531 120.929688 126.945312 119.703125 L 126.726562 119.125 C 125.796875 116.621094 125.425781 114.277344 125.429688 111.605469 L 125.429688 110.742188 C 125.472656 107.839844 126.050781 105.195312 126.964844 102.453125 L 127.535156 102.453125 L 127.695312 102.921875 C 127.941406 103.617188 128.191406 104.316406 128.445312 105.007812 L 128.699219 105.746094 C 128.941406 106.402344 129.175781 107.003906 129.535156 107.601562 C 130.277344 107.949219 130.277344 107.949219 130.960938 107.886719 C 131.914062 105.980469 132.269531 103.964844 132.675781 101.882812 M 98.410156 83.863281 L 98.695312 84.71875 C 97.714844 87.492188 95.519531 89.757812 93.660156 91.96875 C 93.226562 92.496094 92.8125 93.035156 92.414062 93.585938 L 91.789062 93.449219 C 89.566406 93.039062 87.40625 93.257812 85.238281 93.859375 C 83.527344 94.484375 82.148438 95.449219 80.976562 96.839844 L 80.421875 97.589844 C 78.867188 97.386719 77.949219 96.644531 76.722656 95.714844 C 72.046875 91.960938 72.046875 91.960938 70.710938 89.296875 L 70.710938 88.722656 C 71.6875 89.023438 72.636719 89.398438 73.550781 89.851562 C 77.367188 91.585938 82.273438 91.914062 86.417969 91.585938 C 89.175781 91.199219 91.847656 90.359375 94.128906 88.722656 C 95.792969 87.296875 97.164062 85.660156 98.410156 83.863281 M 142.382812 43.246094 L 142.957031 43.53125 C 142.960938 44.09375 142.96875 44.652344 142.972656 45.210938 L 142.984375 46.15625 C 142.964844 46.941406 142.90625 47.722656 142.808594 48.5 C 142.664062 49.820312 142.660156 51.128906 142.683594 52.457031 L 142.691406 53.089844 C 142.703125 53.964844 142.71875 54.835938 142.738281 55.707031 C 142.753906 56.351562 142.765625 56.996094 142.769531 57.640625 L 142.792969 58.230469 C 142.796875 59.296875 142.652344 59.863281 142.125 60.796875 C 141.183594 61.988281 141.183594 61.988281 140.386719 62.410156 C 139.621094 62.558594 138.878906 62.628906 138.101562 62.695312 C 137.679688 62.230469 137.679688 62.230469 137.246094 61.550781 C 137.128906 60.746094 137.128906 60.746094 137.136719 59.835938 L 137.128906 58.941406 C 137.457031 55.761719 138.632812 52.773438 139.71875 49.789062 C 139.976562 49.085938 140.230469 48.378906 140.484375 47.671875 L 140.976562 46.320312 L 141.203125 45.683594 C 141.53125 44.789062 141.855469 44.042969 142.382812 43.246094 " fill-opacity="1" fill-rule="nonzero"/><path fill="#ffffff" d="M 95.839844 91.585938 L 96.125 92.441406 C 95.132812 94.519531 93.355469 96.734375 91.472656 98.050781 C 90.851562 98.40625 90.210938 98.730469 89.558594 99.019531 L 88.71875 99.398438 C 86.863281 99.8125 85.203125 99.707031 83.382812 99.164062 C 82.964844 99.027344 82.550781 98.882812 82.132812 98.734375 C 82.25 98.078125 82.359375 97.664062 82.785156 97.144531 C 84.140625 95.96875 85.523438 95.160156 87.273438 94.730469 C 88.425781 94.644531 89.550781 94.660156 90.699219 94.730469 C 90.53125 95.59375 90.351562 96.453125 90.128906 97.304688 C 90.808594 97.234375 90.808594 97.234375 91.558594 97.019531 C 92.074219 96.609375 92.074219 96.609375 92.503906 96.054688 L 93.007812 95.4375 C 93.984375 94.175781 94.921875 92.886719 95.839844 91.585938 " fill-opacity="1" fill-rule="nonzero"/><path fill="#cc4940" d="M 91.164062 129.679688 L 92.128906 129.910156 L 92.699219 130.484375 C 92.792969 132.195312 92.792969 132.195312 92.523438 133.023438 C 92.371094 133.871094 92.601562 134.410156 92.886719 135.214844 C 93.113281 135.835938 93.34375 136.460938 93.574219 137.082031 L 93.90625 138.035156 C 94.222656 138.890625 94.539062 139.695312 94.984375 140.496094 C 95.839844 141.101562 95.839844 141.101562 96.695312 141.351562 L 97.269531 142.210938 C 97.214844 143.082031 97.113281 143.710938 96.660156 144.464844 C 96.125 144.785156 96.125 144.785156 95.125 144.910156 L 94.128906 144.785156 C 93.574219 144.320312 93.574219 144.320312 93.269531 143.640625 C 93.191406 142.746094 93.230469 142.054688 93.488281 141.191406 C 93.589844 139.726562 93.011719 138.621094 92.433594 137.296875 C 92.214844 136.785156 91.996094 136.273438 91.78125 135.761719 L 91.484375 135.082031 C 91.273438 134.488281 91.273438 134.488281 91.273438 133.628906 L 90.449219 133.542969 L 89.558594 133.34375 C 88.988281 132.484375 88.988281 132.484375 88.878906 131.484375 L 88.988281 130.484375 C 89.679688 129.597656 90.039062 129.621094 91.164062 129.679688 " fill-opacity="1" fill-rule="nonzero"/><path fill="#201d21" d="M 330.09375 117.09375 C 331.128906 117.328125 331.128906 117.328125 331.929688 117.84375 C 332.875 118.792969 332.875 118.792969 333.128906 119.613281 C 333.207031 120.457031 333.25 121.085938 333.128906 121.902344 C 332.714844 122.742188 332.714844 122.742188 331.984375 123.332031 C 331.109375 123.617188 330.332031 123.699219 329.414062 123.621094 C 328.414062 123.136719 327.863281 122.671875 327.167969 121.8125 C 326.84375 121.046875 326.84375 121.046875 326.703125 120.0625 C 326.84375 119.042969 326.84375 119.042969 327.136719 118.542969 C 327.503906 118.078125 327.503906 118.078125 328.273438 117.328125 C 329.128906 117.039062 329.128906 117.039062 330.09375 117.09375 " fill-opacity="1" fill-rule="nonzero"/><path fill="#ffffff" d="M 142.957031 38.097656 C 144.355469 39.378906 144.945312 40.511719 145.539062 42.296875 C 146.160156 44.734375 145.945312 47.332031 145.882812 49.824219 C 145.867188 50.65625 145.855469 51.488281 145.84375 52.324219 C 145.835938 52.835938 145.828125 53.351562 145.816406 53.863281 C 145.789062 55.132812 145.847656 56.296875 146.097656 57.546875 C 146.128906 58.3125 146.109375 59.066406 146.097656 59.835938 L 144.382812 60.40625 C 144.203125 57.417969 144.066406 54.429688 144.0625 51.433594 L 144.058594 50.675781 C 144.058594 49.429688 144.167969 48.191406 144.382812 46.964844 C 144.449219 46.113281 144.472656 45.261719 144.488281 44.40625 L 144.523438 43.738281 C 144.53125 43.066406 144.511719 42.472656 144.382812 41.816406 C 144.058594 41.238281 143.707031 40.757812 143.273438 40.257812 L 142.957031 39.8125 C 142.867188 38.832031 142.867188 38.832031 142.957031 38.097656 M 149.808594 132.484375 C 151.0625 133.523438 151.582031 134.820312 152.21875 136.277344 L 152.558594 137.050781 C 153.53125 139.296875 154.3125 141.5625 154.949219 143.925781 L 155.105469 144.511719 C 155.765625 146.964844 156.300781 149.421875 156.660156 151.9375 L 156.089844 151.9375 L 155.886719 151.25 C 155.125 148.804688 154.167969 146.507812 153.109375 144.175781 C 152.074219 141.878906 151.160156 139.597656 150.46875 137.167969 L 150.257812 136.4375 C 149.894531 135.078125 149.738281 133.890625 149.808594 132.484375 " fill-opacity="1" fill-rule="nonzero"/><path fill="#201d21" d="M 330.558594 151.078125 L 333.128906 151.078125 L 333.128906 157.941406 L 332.269531 157.65625 L 332.269531 157.085938 L 325.417969 157.085938 L 325.132812 157.941406 L 324.847656 157.941406 L 324.847656 151.363281 L 326.84375 151.363281 L 326.148438 151.898438 C 325.730469 152.28125 325.730469 152.28125 325.417969 152.792969 C 325.207031 153.765625 325.171875 154.65625 325.132812 155.65625 L 328.558594 155.65625 C 328.507812 154.8125 328.507812 154.8125 328.273438 153.9375 C 327.714844 153.527344 327.714844 153.527344 327.128906 153.367188 L 327.128906 152.792969 L 330.558594 152.792969 L 330.273438 153.652344 C 329.683594 153.847656 329.683594 153.847656 329.128906 153.9375 L 329.128906 155.65625 L 332.554688 155.65625 L 332.554688 152.507812 L 331.128906 151.9375 Z M 329.984375 143.355469 C 330.96875 143.355469 330.96875 143.355469 331.984375 143.640625 C 332.664062 144.25 332.664062 144.25 333.128906 145.070312 C 333.363281 145.984375 333.484375 146.714844 333.300781 147.648438 C 333.164062 148.128906 333.003906 148.601562 332.839844 149.074219 L 330.84375 149.074219 C 330.945312 148.949219 331.050781 148.828125 331.15625 148.699219 C 331.566406 148.167969 331.9375 147.652344 332.269531 147.074219 C 332.4375 146.15625 332.4375 146.15625 332.269531 145.355469 L 331.699219 144.785156 C 331.128906 144.734375 331.128906 144.734375 330.558594 145.070312 C 330.050781 145.847656 329.621094 146.628906 329.203125 147.457031 C 328.925781 147.957031 328.925781 147.957031 328.273438 148.789062 C 327.261719 149.101562 327.261719 149.101562 326.273438 149.074219 C 325.617188 148.695312 325.328125 148.28125 324.875 147.675781 C 324.535156 147.027344 324.445312 146.605469 324.4375 145.875 C 324.609375 144.347656 324.609375 144.347656 324.847656 143.640625 L 327.128906 143.640625 L 326.417969 144.375 C 326.007812 144.832031 326.007812 144.832031 325.703125 145.355469 C 325.582031 146.429688 325.582031 146.429688 325.703125 147.359375 L 327.417969 147.359375 L 327.761719 146.703125 L 328.21875 145.839844 L 328.671875 144.984375 C 329.070312 144.3125 329.367188 143.824219 329.984375 143.355469 " fill-opacity="1" fill-rule="nonzero"/><path fill="#ffffff" d="M 80.421875 79 L 81.277344 79.285156 L 81.5625 79.855469 L 80.742188 80.089844 L 79.851562 80.429688 L 79.277344 81.289062 C 78.738281 81.488281 78.738281 81.488281 78.085938 81.625 L 77.355469 81.785156 L 76.585938 81.949219 C 74.34375 82.46875 72.308594 83.042969 70.425781 84.433594 C 69.789062 85.105469 69.40625 85.621094 69 86.4375 C 68.855469 88.070312 69.046875 89.464844 69.570312 91.011719 C 68.636719 90.265625 67.761719 89.527344 67 88.597656 C 66.714844 87.867188 66.714844 87.867188 66.679688 86.882812 C 67 85.863281 67 85.863281 67.796875 85.050781 C 69.230469 83.871094 70.898438 83.179688 72.585938 82.429688 L 73.585938 81.980469 C 74.238281 81.6875 74.890625 81.398438 75.542969 81.105469 C 76.285156 80.777344 77.027344 80.441406 77.769531 80.101562 C 78.125 79.941406 78.476562 79.785156 78.832031 79.625 L 79.722656 79.226562 Z M 80.421875 79 " fill-opacity="1" fill-rule="nonzero"/><path fill="#201d21" d="M 324.847656 134.488281 L 327.417969 134.488281 C 326.648438 135.132812 326.089844 135.597656 325.132812 135.917969 L 325.132812 137.347656 L 332.269531 137.0625 L 332.554688 136.492188 L 333.128906 136.492188 L 333.128906 139.636719 L 332.269531 139.351562 L 332.269531 138.777344 L 325.132812 138.777344 L 325.132812 140.207031 L 325.792969 140.441406 C 326.558594 140.78125 326.558594 140.78125 327.417969 141.640625 L 324.5625 141.640625 Z M 332.519531 105.546875 C 333.390625 105.878906 333.707031 106.085938 334.324219 106.742188 C 335.214844 107.871094 335.625 109.082031 335.984375 110.460938 L 335.410156 110.460938 L 335.160156 109.847656 C 334.808594 109.058594 334.453125 108.324219 333.984375 107.601562 C 333.125 107.15625 333.125 107.15625 332.269531 107.316406 C 331.304688 107.914062 330.804688 109.203125 330.273438 110.175781 C 329.855469 110.136719 329.4375 110.09375 329.023438 110.050781 L 328.320312 109.980469 C 327.703125 109.890625 327.703125 109.890625 327.128906 109.605469 L 327.128906 106.457031 L 326.273438 106.171875 L 326.273438 105.886719 L 328.273438 105.886719 L 328.273438 109.605469 L 329.128906 109.316406 C 329.503906 108.757812 329.503906 108.757812 329.824219 108.085938 C 331.136719 105.636719 331.136719 105.636719 332.519531 105.546875 M 331.128906 125.050781 L 333.128906 125.050781 L 333.128906 130.199219 C 331.230469 128.59375 331.230469 128.59375 330.378906 127.640625 L 329.699219 127.050781 C 328.914062 127.066406 328.914062 127.066406 328.273438 127.335938 C 328.074219 128 328.074219 128 327.988281 128.769531 C 328.226562 129.417969 328.226562 129.417969 328.558594 129.910156 C 327.855469 129.582031 327.402344 129.324219 326.84375 128.769531 C 326.757812 127.800781 326.757812 127.800781 326.84375 126.765625 C 327.167969 126.070312 327.167969 126.070312 327.703125 125.621094 C 328.488281 125.425781 328.488281 125.425781 329.414062 125.621094 C 330.160156 126.222656 330.789062 126.898438 331.414062 127.625 L 331.699219 125.335938 Z M 331.128906 125.050781 " fill-opacity="1" fill-rule="nonzero"/><path fill="#ffffff" d="M 331.414062 118.472656 L 332.269531 119.042969 C 332.414062 120.007812 332.414062 120.007812 332.269531 121.046875 C 331.699219 121.742188 331.699219 121.742188 330.84375 122.1875 C 330.027344 122.3125 329.394531 122.273438 328.558594 122.1875 L 327.988281 121.617188 C 327.824219 120.15625 327.824219 120.15625 327.988281 119.328125 C 329.011719 118.335938 330.039062 118.34375 331.414062 118.472656 " fill-opacity="1" fill-rule="nonzero"/><path fill="#201d21" d="M 327.128906 112.179688 L 327.703125 112.179688 L 327.988281 112.75 L 332.269531 112.75 L 332.554688 112.179688 L 333.128906 112.179688 L 333.128906 115.324219 L 332.554688 115.324219 L 332.269531 114.753906 C 331.496094 114.664062 330.746094 114.605469 329.96875 114.574219 L 329.3125 114.539062 C 328.777344 114.511719 328.238281 114.488281 327.703125 114.464844 L 327.417969 115.324219 L 327.128906 115.324219 Z M 327.128906 112.179688 " fill-opacity="1" fill-rule="nonzero"/><path fill="#ffffff" d="M 80.421875 79 L 81.277344 79.285156 L 81.5625 79.855469 L 80.742188 80.089844 L 79.851562 80.429688 L 79.277344 81.289062 C 78.734375 81.492188 78.734375 81.492188 78.074219 81.632812 L 77.34375 81.796875 L 76.566406 81.964844 C 74.460938 82.453125 72.566406 83 70.710938 84.148438 L 70.140625 83.574219 C 75.914062 81.007812 75.914062 81.007812 76.917969 80.5625 C 77.496094 80.300781 78.074219 80.039062 78.644531 79.765625 L 79.332031 79.441406 L 79.917969 79.160156 Z M 137.53125 30.375 L 137.53125 30.945312 L 136.871094 31.320312 C 136.078125 31.757812 136.078125 31.757812 135.601562 32.464844 C 135.214844 33.300781 135.066406 34.039062 134.960938 34.949219 C 134.425781 34.863281 134.425781 34.863281 133.816406 34.664062 L 133.246094 33.808594 C 133.265625 32.824219 133.265625 32.824219 133.53125 31.804688 C 134.789062 30.546875 135.792969 30.335938 137.53125 30.375 M 35.875 153.367188 L 36.734375 153.9375 L 36.734375 154.511719 C 34.71875 155.460938 32.941406 155.460938 30.738281 155.367188 L 31.023438 154.511719 C 32.566406 153.5 34.0625 153.179688 35.875 153.367188 " fill-opacity="1" fill-rule="nonzero"/><path fill="#201d21" d="M 332.269531 119.613281 L 332.554688 120.1875 L 333.128906 120.1875 C 333.199219 120.957031 333.199219 120.957031 333.128906 121.902344 C 332.714844 122.707031 332.714844 122.707031 331.984375 123.332031 C 331.113281 123.617188 330.328125 123.703125 329.414062 123.621094 C 328.414062 123.117188 328.414062 123.117188 327.703125 122.476562 L 327.417969 121.617188 L 327.84375 121.761719 C 328.855469 121.960938 329.820312 122.019531 330.84375 121.902344 C 331.558594 121.613281 331.558594 121.613281 331.984375 121.046875 C 332.214844 120.300781 332.214844 120.300781 332.269531 119.613281 " fill-opacity="1" fill-rule="nonzero"/><path fill="#ffffff" d="M 154.378906 55.832031 L 154.949219 56.117188 C 155.140625 56.949219 155.273438 57.570312 155.234375 58.40625 C 154.699219 59.1875 154.230469 59.480469 153.394531 59.90625 C 152.636719 60.128906 152.023438 60.167969 151.234375 60.121094 L 151.878906 59.496094 C 153 58.347656 153.851562 57.363281 154.378906 55.832031 " fill-opacity="1" fill-rule="nonzero"/><path fill="#201d21" d="M 331.128906 125.050781 L 333.128906 125.050781 L 333.128906 130.199219 L 331.699219 129.054688 C 331.578125 128.210938 331.578125 128.210938 331.644531 127.300781 C 331.683594 126.742188 331.703125 126.183594 331.699219 125.621094 Z M 331.128906 125.050781 " fill-opacity="1" fill-rule="nonzero"/><path fill="#ffffff" d="M 142.957031 38.097656 C 143.867188 38.863281 144.472656 39.539062 144.917969 40.652344 C 145.460938 42.445312 145.167969 44.277344 144.953125 46.105469 L 144.667969 46.105469 L 144.65625 45.238281 C 144.644531 43.128906 144.644531 43.128906 144.046875 41.144531 C 143.6875 40.699219 143.320312 40.253906 142.957031 39.8125 C 142.867188 38.832031 142.867188 38.832031 142.957031 38.097656 " fill-opacity="1" fill-rule="nonzero"/><path fill="#201d21" d="M 326.273438 105.886719 L 328.273438 105.886719 L 328.273438 109.605469 L 327.128906 109.605469 L 327.128906 106.457031 L 326.273438 106.171875 Z M 326.273438 105.886719 " fill-opacity="1" fill-rule="nonzero"/><path fill="#ffffff" d="M 95.839844 91.585938 L 96.125 92.441406 C 95.191406 94.394531 93.585938 96.023438 92.128906 97.589844 L 91.558594 97.019531 L 91.914062 96.628906 C 93.347656 95.03125 94.601562 93.335938 95.839844 91.585938 " fill-opacity="1" fill-rule="nonzero"/><path fill="#201d21" d="M 324.847656 143.640625 L 327.128906 143.640625 L 326.433594 144.390625 C 325.847656 145.089844 325.695312 145.398438 325.472656 146.324219 L 325.417969 147.074219 L 324.5625 147.074219 C 324.519531 144.621094 324.519531 144.621094 324.847656 143.640625 " fill-opacity="1" fill-rule="nonzero"/><path fill="#3f3028" d="M 327.128906 152.792969 L 330.558594 152.792969 L 330.273438 153.652344 L 328.84375 153.9375 L 328.84375 155.65625 L 328.558594 155.65625 L 328.488281 154.832031 L 328.273438 153.9375 C 327.714844 153.527344 327.714844 153.527344 327.128906 153.367188 Z M 327.128906 152.792969 " fill-opacity="1" fill-rule="nonzero"/><path fill="#ffffff" d="M 116.972656 78.714844 C 117.578125 78.820312 117.578125 78.820312 118.113281 79 C 118.292969 79.679688 118.292969 79.679688 118.398438 80.429688 L 117.828125 81 C 117.21875 80.894531 117.21875 80.894531 116.683594 80.714844 C 116.507812 80.035156 116.507812 80.035156 116.398438 79.285156 Z M 132.105469 173.960938 C 132.582031 173.949219 133.054688 173.949219 133.53125 173.960938 C 133.710938 174.640625 133.710938 174.640625 133.816406 175.390625 L 133.246094 175.960938 C 132.496094 175.855469 132.496094 175.855469 131.820312 175.675781 C 131.808594 175.199219 131.808594 174.722656 131.820312 174.246094 Z M 148.667969 163.664062 C 149.144531 163.746094 149.621094 163.839844 150.09375 163.949219 C 150.203125 164.421875 150.296875 164.898438 150.378906 165.378906 L 150.09375 165.664062 C 149.378906 165.699219 149.378906 165.699219 148.667969 165.664062 L 148.378906 165.378906 C 148.34375 164.664062 148.34375 164.664062 148.378906 163.949219 Z M 130.960938 160.804688 C 131.550781 160.929688 131.550781 160.929688 132.105469 161.089844 L 132.390625 162.519531 L 131.246094 163.089844 L 130.390625 162.519531 C 130.476562 162.039062 130.574219 161.5625 130.675781 161.089844 Z M 212.34375 154.796875 C 212.820312 154.878906 213.296875 154.972656 213.769531 155.082031 C 213.878906 155.554688 213.972656 156.03125 214.054688 156.511719 L 213.769531 156.796875 C 213.054688 156.835938 213.054688 156.835938 212.34375 156.796875 L 212.058594 156.511719 C 212.019531 155.796875 212.019531 155.796875 212.058594 155.082031 Z M 108.691406 152.507812 C 109.441406 152.617188 109.441406 152.617188 110.117188 152.792969 L 110.402344 153.652344 L 109.832031 154.511719 L 108.40625 154.222656 C 108.226562 153.6875 108.226562 153.6875 108.117188 153.082031 Z M 115.828125 96.445312 C 116.308594 96.527344 116.78125 96.625 117.257812 96.734375 C 117.367188 97.207031 117.460938 97.683594 117.542969 98.164062 L 117.257812 98.449219 C 116.542969 98.484375 116.542969 98.484375 115.828125 98.449219 L 115.542969 98.164062 C 115.507812 97.449219 115.507812 97.449219 115.542969 96.734375 Z M 142.097656 93.871094 C 142.574219 93.859375 143.050781 93.859375 143.527344 93.871094 L 143.8125 94.160156 C 143.824219 94.636719 143.824219 95.113281 143.8125 95.589844 C 143.132812 95.765625 143.132812 95.765625 142.382812 95.875 L 141.8125 95.300781 C 141.921875 94.550781 141.921875 94.550781 142.097656 93.871094 M 133.53125 84.148438 C 134.007812 84.136719 134.484375 84.136719 134.960938 84.148438 L 135.246094 84.433594 C 135.257812 84.910156 135.257812 85.386719 135.246094 85.863281 C 134.566406 86.042969 134.566406 86.042969 133.816406 86.148438 L 133.246094 85.578125 C 133.355469 84.828125 133.355469 84.828125 133.53125 84.148438 M 103.835938 79.570312 C 104.3125 79.558594 104.789062 79.558594 105.261719 79.570312 C 105.441406 80.25 105.441406 80.25 105.550781 81 L 104.976562 81.574219 C 104.226562 81.464844 104.226562 81.464844 103.550781 81.289062 C 103.539062 80.8125 103.539062 80.332031 103.550781 79.855469 Z M 100.410156 158.800781 C 101 158.925781 101 158.925781 101.550781 159.085938 L 101.835938 160.515625 L 100.695312 161.089844 L 99.839844 160.515625 C 99.925781 160.039062 100.019531 159.5625 100.125 159.085938 Z M 133.53125 77.28125 C 134.007812 77.269531 134.484375 77.269531 134.960938 77.28125 L 135.246094 77.570312 C 135.257812 78.046875 135.257812 78.523438 135.246094 79 C 134.566406 79.179688 134.566406 79.179688 133.816406 79.285156 L 133.246094 78.714844 C 133.355469 77.960938 133.355469 77.960938 133.53125 77.28125 M 142.097656 175.390625 C 142.574219 175.378906 143.050781 175.378906 143.527344 175.390625 C 143.703125 176.070312 143.703125 176.070312 143.8125 176.820312 L 143.242188 177.390625 C 142.632812 177.285156 142.632812 177.285156 142.097656 177.105469 C 141.988281 176.632812 141.894531 176.15625 141.8125 175.675781 Z M 119.539062 168.527344 C 120.019531 168.605469 120.496094 168.703125 120.96875 168.8125 C 121.148438 169.347656 121.148438 169.347656 121.253906 169.957031 L 120.683594 170.527344 C 119.933594 170.421875 119.933594 170.421875 119.253906 170.242188 C 119.242188 169.765625 119.242188 169.289062 119.253906 168.8125 Z M 140.671875 167.667969 C 141.277344 167.773438 141.277344 167.773438 141.8125 167.953125 C 141.921875 168.425781 142.015625 168.902344 142.097656 169.382812 L 141.8125 169.667969 C 141.335938 169.679688 140.859375 169.683594 140.386719 169.667969 C 140.207031 168.992188 140.207031 168.992188 140.101562 168.238281 Z M 181.503906 166.523438 C 181.980469 166.511719 182.457031 166.511719 182.929688 166.523438 C 183.109375 167.203125 183.109375 167.203125 183.21875 167.953125 L 182.644531 168.527344 C 182.039062 168.417969 182.039062 168.417969 181.503906 168.238281 C 181.394531 167.765625 181.300781 167.289062 181.21875 166.808594 Z M 122.109375 157.085938 L 123.539062 157.371094 C 123.648438 157.84375 123.742188 158.320312 123.824219 158.800781 L 123.539062 159.085938 C 123.0625 159.097656 122.585938 159.097656 122.109375 159.085938 C 122 158.613281 121.902344 158.136719 121.824219 157.65625 Z M 47.582031 154.222656 C 48.0625 154.304688 48.539062 154.402344 49.011719 154.511719 C 49.191406 155.046875 49.191406 155.046875 49.296875 155.65625 L 48.726562 156.226562 C 47.976562 156.121094 47.976562 156.121094 47.296875 155.941406 C 47.285156 155.464844 47.285156 154.988281 47.296875 154.511719 Z M 147.238281 153.367188 C 147.84375 153.492188 147.84375 153.492188 148.378906 153.652344 L 148.667969 155.082031 C 148.097656 155.191406 147.527344 155.285156 146.953125 155.367188 L 146.667969 155.082031 C 146.65625 154.605469 146.65625 154.128906 146.667969 153.652344 Z M 147.238281 153.367188 " fill-opacity="1" fill-rule="nonzero"/><path fill="#3f3028" d="M 330.558594 151.078125 L 333.128906 151.078125 L 332.839844 155.65625 L 332.554688 155.65625 L 332.554688 152.507812 L 331.128906 151.9375 Z M 330.558594 151.078125 " fill-opacity="1" fill-rule="nonzero"/><path fill="#ffffff" d="M 94.414062 141.925781 C 94.890625 141.914062 95.363281 141.914062 95.839844 141.925781 C 96.019531 142.605469 96.019531 142.605469 96.125 143.355469 L 95.554688 143.925781 C 94.949219 143.820312 94.949219 143.820312 94.414062 143.640625 C 94.304688 143.167969 94.207031 142.691406 94.128906 142.210938 Z M 119.828125 131.914062 C 120.433594 132.019531 120.433594 132.019531 120.96875 132.199219 C 121.078125 132.675781 121.171875 133.152344 121.253906 133.628906 L 120.96875 133.917969 C 120.492188 133.929688 120.015625 133.929688 119.539062 133.917969 C 119.363281 133.238281 119.363281 133.238281 119.253906 132.484375 Z M 90.414062 130.484375 C 91.023438 130.589844 91.023438 130.589844 91.558594 130.769531 C 91.667969 131.242188 91.761719 131.71875 91.84375 132.199219 L 91.558594 132.484375 C 91.082031 132.496094 90.605469 132.5 90.128906 132.484375 C 89.953125 131.808594 89.953125 131.808594 89.84375 131.054688 Z M 77.28125 129.339844 C 77.757812 129.421875 78.234375 129.515625 78.707031 129.625 L 78.707031 131.054688 C 78.03125 131.234375 78.03125 131.234375 77.28125 131.34375 L 76.710938 130.769531 C 76.796875 130.179688 76.796875 130.179688 76.996094 129.625 Z M 108.117188 87.007812 C 108.597656 87.089844 109.074219 87.183594 109.546875 87.292969 L 109.546875 88.722656 C 108.867188 88.902344 108.867188 88.902344 108.117188 89.011719 L 107.546875 88.4375 C 107.636719 87.847656 107.636719 87.847656 107.832031 87.292969 Z M 118.113281 83.574219 C 118.71875 83.683594 118.71875 83.683594 119.253906 83.863281 C 119.363281 84.335938 119.460938 84.8125 119.539062 85.292969 L 119.253906 85.578125 C 118.78125 85.589844 118.304688 85.589844 117.828125 85.578125 C 117.648438 84.898438 117.648438 84.898438 117.542969 84.148438 Z M 92.128906 76.140625 C 92.605469 76.125 93.082031 76.125 93.554688 76.140625 C 93.734375 76.816406 93.734375 76.816406 93.839844 77.570312 L 93.269531 78.140625 C 92.664062 78.035156 92.664062 78.035156 92.128906 77.855469 C 92.019531 77.382812 91.925781 76.90625 91.84375 76.425781 Z M 143.527344 72.132812 C 144.003906 72.121094 144.476562 72.121094 144.953125 72.132812 C 145.132812 72.8125 145.132812 72.8125 145.238281 73.566406 L 144.667969 74.136719 L 143.527344 74.136719 C 143.417969 73.566406 143.324219 72.996094 143.242188 72.421875 Z M 167.511719 174.246094 C 167.992188 174.328125 168.464844 174.421875 168.941406 174.53125 L 168.941406 175.960938 C 168.261719 176.140625 168.261719 176.140625 167.511719 176.25 L 166.941406 175.675781 C 167.03125 175.085938 167.03125 175.085938 167.226562 174.53125 Z M 60.71875 161.945312 L 62.144531 161.945312 C 62.324219 162.625 62.324219 162.625 62.433594 163.378906 L 61.859375 163.949219 C 61.253906 163.84375 61.253906 163.84375 60.71875 163.664062 C 60.558594 163.125 60.558594 163.125 60.433594 162.519531 Z M 195.78125 156.226562 C 196.257812 156.308594 196.734375 156.402344 197.207031 156.511719 L 197.207031 158.230469 L 195.496094 158.230469 C 195.484375 157.65625 195.484375 157.085938 195.496094 156.511719 Z M 90.414062 113.609375 C 91.023438 113.714844 91.023438 113.714844 91.558594 113.894531 C 91.71875 114.429688 91.71875 114.429688 91.84375 115.039062 L 91.558594 115.609375 L 90.128906 115.609375 C 89.953125 114.929688 89.953125 114.929688 89.84375 114.179688 Z M 93.554688 104.457031 C 94.164062 104.5625 94.164062 104.5625 94.699219 104.742188 C 94.859375 105.277344 94.859375 105.277344 94.984375 105.886719 L 94.699219 106.457031 L 93.269531 106.457031 C 93.09375 105.777344 93.09375 105.777344 92.984375 105.027344 Z M 80.707031 80.714844 L 82.132812 81 L 82.132812 82.429688 L 80.707031 82.71875 L 80.136719 81.574219 Z M 132.105469 132.199219 C 132.710938 132.324219 132.710938 132.324219 133.246094 132.484375 C 133.425781 133.023438 133.425781 133.023438 133.53125 133.628906 L 132.960938 134.203125 L 131.820312 134.203125 L 131.535156 132.484375 Z M 142.957031 106.171875 C 143.667969 106.136719 143.667969 106.136719 144.382812 106.171875 L 144.667969 106.457031 C 144.679688 106.933594 144.679688 107.410156 144.667969 107.886719 L 142.957031 107.886719 C 142.847656 107.414062 142.75 106.9375 142.667969 106.457031 Z M 73.28125 142.78125 C 73.761719 142.863281 74.238281 142.960938 74.710938 143.070312 L 74.710938 144.5 C 74.238281 144.609375 73.761719 144.703125 73.28125 144.785156 L 72.996094 144.5 C 72.960938 143.785156 72.960938 143.785156 72.996094 143.070312 Z M 83.277344 130.769531 C 83.753906 130.851562 84.230469 130.945312 84.703125 131.054688 L 84.703125 132.484375 C 84.230469 132.59375 83.753906 132.691406 83.277344 132.773438 L 82.992188 132.484375 C 82.957031 131.769531 82.957031 131.769531 82.992188 131.054688 Z M 81.5625 148.503906 C 82.152344 148.628906 82.152344 148.628906 82.707031 148.789062 L 82.992188 149.933594 L 82.132812 150.507812 C 81.511719 150.398438 81.511719 150.398438 80.992188 150.21875 C 81.078125 149.742188 81.175781 149.265625 81.277344 148.789062 Z M 110.117188 121.902344 C 110.59375 121.890625 111.070312 121.890625 111.546875 121.902344 C 111.65625 122.378906 111.75 122.855469 111.832031 123.332031 L 111.546875 123.621094 C 111.070312 123.628906 110.59375 123.632812 110.117188 123.621094 C 110.007812 123.144531 109.914062 122.667969 109.832031 122.1875 Z M 137.246094 74.421875 C 137.851562 74.546875 137.851562 74.546875 138.386719 74.707031 L 138.386719 76.140625 C 137.914062 76.246094 137.4375 76.34375 136.957031 76.425781 L 136.671875 76.140625 C 136.660156 75.664062 136.660156 75.183594 136.671875 74.707031 Z M 106.691406 68.988281 C 107.167969 68.976562 107.644531 68.976562 108.117188 68.988281 C 108.28125 69.523438 108.28125 69.523438 108.40625 70.132812 L 108.117188 70.703125 L 106.691406 70.703125 C 106.582031 70.230469 106.488281 69.753906 106.40625 69.273438 Z M 106.691406 68.988281 " fill-opacity="1" fill-rule="nonzero"/><path fill="#201d21" d="M 333.128906 146.789062 C 333.140625 147.453125 333.140625 148.121094 333.128906 148.789062 L 332.839844 149.074219 C 332.175781 149.085938 331.507812 149.085938 330.84375 149.074219 C 331.066406 148.746094 331.292969 148.417969 331.519531 148.09375 C 331.648438 147.910156 331.773438 147.726562 331.902344 147.539062 C 332.257812 147.089844 332.519531 146.789062 333.128906 146.789062 " fill-opacity="1" fill-rule="nonzero"/><path fill="#ffffff" d="M 75.28125 81.289062 L 75.851562 81.574219 L 75.566406 82.144531 C 74.914062 82.421875 74.914062 82.421875 74.085938 82.699219 C 72.90625 83.109375 71.8125 83.554688 70.710938 84.148438 L 70.140625 83.574219 C 70.984375 83.183594 71.828125 82.796875 72.675781 82.414062 L 73.402344 82.074219 L 74.101562 81.761719 L 74.746094 81.464844 Z M 137.816406 141.925781 C 138.40625 142.050781 138.40625 142.050781 138.957031 142.210938 L 139.242188 143.640625 L 137.246094 143.355469 C 137.332031 142.972656 137.425781 142.589844 137.53125 142.210938 Z M 124.394531 104.457031 C 124.726562 105.449219 124.617188 105.925781 124.414062 106.941406 L 124.246094 107.800781 L 124.109375 108.460938 L 123.539062 107.316406 L 122.96875 107.601562 C 123.316406 106.441406 123.738281 105.472656 124.394531 104.457031 " fill-opacity="1" fill-rule="nonzero"/><path fill="#3f3028" d="M 333.984375 107.316406 L 334.839844 107.316406 C 335.03125 107.730469 335.222656 108.148438 335.410156 108.566406 L 335.734375 109.269531 C 335.984375 109.890625 335.984375 109.890625 335.984375 110.460938 L 335.410156 110.460938 Z M 333.984375 107.316406 " fill-opacity="1" fill-rule="nonzero"/><path fill="#ffffff" d="M 96.695312 94.445312 L 96.984375 95.015625 C 96.808594 95.6875 96.621094 96.355469 96.410156 97.019531 L 94.699219 97.019531 Z M 96.695312 94.445312 " fill-opacity="1" fill-rule="nonzero"/><path fill="#7e5228" d="M 331.699219 125.621094 L 331.984375 125.621094 C 332 126.039062 332.011719 126.457031 332.019531 126.871094 L 332.039062 127.578125 L 331.984375 128.195312 L 331.414062 128.769531 L 329.984375 127.050781 C 330.367188 127.136719 330.75 127.234375 331.128906 127.335938 L 331.414062 127.625 Z M 331.699219 125.621094 " fill-opacity="1" fill-rule="nonzero"/><path fill="#d3716a" d="M 148.378906 53.257812 L 149.238281 53.542969 L 148.828125 53.828125 C 148.347656 54.359375 148.347656 54.359375 148.261719 54.96875 C 148.191406 55.539062 148.140625 56.113281 148.09375 56.6875 L 147.238281 56.6875 C 147.492188 55.628906 147.78125 54.585938 148.09375 53.542969 Z M 148.378906 53.257812 " fill-opacity="1" fill-rule="nonzero"/><path fill="#ffffff" d="M 159.230469 131.914062 L 159.515625 131.914062 C 159.789062 133.277344 159.824219 134.535156 159.800781 135.917969 L 159.230469 135.632812 C 158.804688 134.355469 159.03125 133.214844 159.230469 131.914062 M 149.523438 56.402344 L 150.378906 56.6875 L 150.378906 58.121094 L 149.523438 58.40625 Z M 98.410156 83.863281 L 98.695312 84.71875 C 98.339844 85.328125 98.339844 85.328125 97.839844 85.863281 L 96.984375 86.148438 C 97.375 85.304688 97.835938 84.59375 98.410156 83.863281 M 92.984375 95.300781 L 93.269531 96.445312 L 91.84375 97.589844 L 91.84375 96.734375 C 92.414062 95.964844 92.414062 95.964844 92.984375 95.300781 M 82.992188 123.332031 L 83.277344 124.476562 L 81.5625 125.621094 C 81.957031 124.777344 82.417969 124.066406 82.992188 123.332031 M 93.839844 94.445312 L 94.414062 94.445312 C 94.238281 94.929688 94.046875 95.40625 93.839844 95.875 L 93.269531 96.160156 C 93.355469 95.683594 93.453125 95.207031 93.554688 94.730469 Z M 122.109375 102.738281 L 122.683594 103.882812 L 121.824219 105.027344 Z M 159.230469 110.75 L 160.375 111.605469 L 160.085938 112.179688 L 158.945312 111.035156 Z M 159.230469 110.75 " fill-opacity="1" fill-rule="nonzero"/><path fill="#d3716a" d="M 150.09375 93.871094 C 150.570312 93.859375 151.046875 93.859375 151.523438 93.871094 L 150.09375 95.015625 L 149.808594 94.160156 Z M 150.09375 93.871094 " fill-opacity="1" fill-rule="nonzero"/><path fill="#ffffff" d="M 152.09375 122.1875 L 152.664062 122.761719 L 152.378906 123.621094 L 151.523438 122.476562 Z M 71.285156 83.003906 L 71.855469 83.574219 L 70.710938 84.148438 L 70.140625 83.574219 Z M 142.382812 43.246094 L 142.957031 43.53125 L 142.957031 44.105469 L 141.8125 44.675781 Z M 142.382812 43.246094 " fill-opacity="1" fill-rule="nonzero"/><path fill="#d3716a" d="M 148.378906 53.257812 L 149.238281 53.542969 L 148.09375 54.402344 Z M 148.378906 53.257812 " fill-opacity="1" fill-rule="nonzero"/><path fill="#ffffff" d="M 92.128906 96.445312 L 92.414062 97.304688 L 91.558594 97.304688 Z M 92.128906 96.445312 " fill-opacity="1" fill-rule="nonzero"/></g></svg>